<?xml version="1.0" encoding="UTF-8"?>
<svg width="64px" height="64px" viewBox="0 0 64 64" version="1.1" xmlns="http://www.w3.org/2000/svg" xmlns:xlink="http://www.w3.org/1999/xlink">
    <!-- Generator: Sketch 50.2 (55047) - http://www.bohemiancoding.com/sketch -->
    <title>ic_toast_annotation</title>
    <desc>Created with Sketch.</desc>
    <defs>
        <linearGradient x1="23.1888592%" y1="15.0740671%" x2="81.0659594%" y2="86.8508879%" id="linearGradient-1">
            <stop stop-color="#FFBF59" offset="0%"></stop>
            <stop stop-color="#FA8500" offset="100%"></stop>
        </linearGradient>
    </defs>
    <g id="12.配置管理_网络参数配置_节点_群组_Cache群组__小文件（查看详情）_DRS组配置" stroke="none" stroke-width="1" fill="none" fill-rule="evenodd">
        <g id="配置管理_网络参数配置_节点_群组（Cache-Small）_DRS配置" transform="translate(-688.000000, -381.000000)">
            <g id="dialogue_normal" transform="translate(516.000000, 345.000000)">
                <g id="ic/toast/notice" transform="translate(172.000000, 36.000000)">
                    <g id="ic_toast_annotation">
                        <path d="M64,32 C64,49.6733333 49.6733333,64 32,64 C14.3266667,64 0,49.6733333 0,32 C0,14.3266667 14.3266667,0 32,0 C49.6733333,0 64,14.3266667 64,32" id="Fill-1" fill="url(#linearGradient-1)"></path>
                        <path d="M47,49 C46.4477153,49 46,48.5522847 46,48 C46,47.4477153 46.4477153,47 47,47 C47.5522847,47 48,47.4477153 48,48 C48,48.5522847 47.5522847,49 47,49 Z M50,49 C49.4477153,49 49,48.5522847 49,48 C49,47.4477153 49.4477153,47 50,47 C50.5522847,47 51,47.4477153 51,48 C51,48.5522847 50.5522847,49 50,49 Z M49,52 C48.4477153,52 48,51.5522847 48,51 C48,50.4477153 48.4477153,50 49,50 C49.5522847,50 50,50.4477153 50,51 C50,51.5522847 49.5522847,52 49,52 Z M46,52 C45.4477153,52 45,51.5522847 45,51 C45,50.4477153 45.4477153,50 46,50 C46.5522847,50 47,50.4477153 47,51 C47,51.5522847 46.5522847,52 46,52 Z" id="Combined-Shape" fill="#FF6215"></path>
                        <g id="注释" transform="translate(18.000000, 21.000000)" fill="#FFFFFF" fill-rule="nonzero">
                            <path d="M22.8188392,0 L5.181481,0 C2.31973785,0 0,2.29768145 0,5.13098661 L0,14.9793613 C0,17.3589952 1.6375091,19.3527391 3.85566496,19.9328106 C3.4891631,20.9996513 2.66709505,22.1642643 1.08522716,23.3454897 C0.670031254,23.6547217 1.2353431,24 2.37643553,24 C4.14510797,24 7.29699843,23.1724225 10.3302752,20.1088895 L22.8188712,20.1088895 C25.6801021,20.1088895 28,17.8119373 28,14.9793613 L28,5.1310183 C28,2.29771315 25.6800701,0 22.8188392,0 Z M20,14 L8,14 C7.44771525,14 7,13.5522847 7,13 L7,13 C7,12.4477153 7.44771525,12 8,12 L20,12 C20.5522847,12 21,12.4477153 21,13 L21,13 C21,13.5522847 20.5522847,14 20,14 Z M20,8 L8,8 C7.44771525,8 7,7.55228475 7,7 L7,7 C7,6.44771525 7.44771525,6 8,6 L20,6 C20.5522847,6 21,6.44771525 21,7 L21,7 C21,7.55228475 20.5522847,8 20,8 Z" id="Shape"></path>
                        </g>
                    </g>
                </g>
            </g>
        </g>
    </g>
</svg>