<?xml version="1.0" encoding="UTF-8"?>
<svg width="102px" height="86px" viewBox="0 0 102 86" version="1.1" xmlns="http://www.w3.org/2000/svg" xmlns:xlink="http://www.w3.org/1999/xlink">
    <!-- Generator: Sketch 50.2 (55047) - http://www.bohemiancoding.com/sketch -->
    <title>ic_toast_lose</title>
    <desc>Created with Sketch.</desc>
    <defs>
        <linearGradient x1="21.5910867%" y1="10.8572335%" x2="74.217761%" y2="86.7179835%" id="linearGradient-1">
            <stop stop-color="#E88741" offset="0%"></stop>
            <stop stop-color="#FF4113" offset="100%"></stop>
        </linearGradient>
    </defs>
    <g id="7.配置管理_网络参数配置_节点_删除" stroke="none" stroke-width="1" fill="none" fill-rule="evenodd">
        <g id="删除节点失败后页面" transform="translate(-669.000000, -388.000000)">
            <g id="toast/lose" transform="translate(636.000000, 364.000000)">
                <g id="toast_lose">
                    <g id="ic_toast_lose" transform="translate(33.000000, 24.000000)">
                        <rect id="Combined-Shape" fill="url(#linearGradient-1)" x="19" y="7" width="64" height="64" rx="32"></rect>
                        <path d="M88.1819805,11.0606602 L89.6819805,12.5606602 C90.267767,13.1464466 90.267767,14.0961941 89.6819805,14.6819805 C89.0961941,15.267767 88.1464466,15.267767 87.5606602,14.6819805 L86.0606602,13.1819805 L84.5606602,14.6819805 C83.9748737,15.267767 83.0251263,15.267767 82.4393398,14.6819805 C81.8535534,14.0961941 81.8535534,13.1464466 82.4393398,12.5606602 L83.9393398,11.0606602 L82.4393398,9.56066017 C81.8535534,8.97487373 81.8535534,8.02512627 82.4393398,7.43933983 C83.0251263,6.85355339 83.9748737,6.85355339 84.5606602,7.43933983 L86.0606602,8.93933983 L87.5606602,7.43933983 C88.1464466,6.85355339 89.0961941,6.85355339 89.6819805,7.43933983 C90.267767,8.02512627 90.267767,8.97487373 89.6819805,9.56066017 L88.1819805,11.0606602 Z" id="Combined-Shape" fill="#F4F0EF"></path>
                        <path d="M8.18198052,45.0606602 L9.68198052,46.5606602 C10.267767,47.1464466 10.267767,48.0961941 9.68198052,48.6819805 C9.09619408,49.267767 8.14644661,49.267767 7.56066017,48.6819805 L6.06066017,47.1819805 L4.56066017,48.6819805 C3.97487373,49.267767 3.02512627,49.267767 2.43933983,48.6819805 C1.85355339,48.0961941 1.85355339,47.1464466 2.43933983,46.5606602 L3.93933983,45.0606602 L2.43933983,43.5606602 C1.85355339,42.9748737 1.85355339,42.0251263 2.43933983,41.4393398 C3.02512627,40.8535534 3.97487373,40.8535534 4.56066017,41.4393398 L6.06066017,42.9393398 L7.56066017,41.4393398 C8.14644661,40.8535534 9.09619408,40.8535534 9.68198052,41.4393398 C10.267767,42.0251263 10.267767,42.9748737 9.68198052,43.5606602 L8.18198052,45.0606602 Z" id="Combined-Shape-Copy" fill="#E8E2E0"></path>
                        <path d="M99.1819805,48.0606602 L100.681981,49.5606602 C101.267767,50.1464466 101.267767,51.0961941 100.681981,51.6819805 C100.096194,52.267767 99.1464466,52.267767 98.5606602,51.6819805 L97.0606602,50.1819805 L95.5606602,51.6819805 C94.9748737,52.267767 94.0251263,52.267767 93.4393398,51.6819805 C92.8535534,51.0961941 92.8535534,50.1464466 93.4393398,49.5606602 L94.9393398,48.0606602 L93.4393398,46.5606602 C92.8535534,45.9748737 92.8535534,45.0251263 93.4393398,44.4393398 C94.0251263,43.8535534 94.9748737,43.8535534 95.5606602,44.4393398 L97.0606602,45.9393398 L98.5606602,44.4393398 C99.1464466,43.8535534 100.096194,43.8535534 100.681981,44.4393398 C101.267767,45.0251263 101.267767,45.9748737 100.681981,46.5606602 L99.1819805,48.0606602 Z" id="Combined-Shape-Copy-2" fill="#D6CECC"></path>
                        <path d="M65,57 C64.4477153,57 64,56.5522847 64,56 C64,55.4477153 64.4477153,55 65,55 C65.5522847,55 66,55.4477153 66,56 C66,56.5522847 65.5522847,57 65,57 Z M68,57 C67.4477153,57 67,56.5522847 67,56 C67,55.4477153 67.4477153,55 68,55 C68.5522847,55 69,55.4477153 69,56 C69,56.5522847 68.5522847,57 68,57 Z M67,60 C66.4477153,60 66,59.5522847 66,59 C66,58.4477153 66.4477153,58 67,58 C67.5522847,58 68,58.4477153 68,59 C68,59.5522847 67.5522847,60 67,60 Z M64,60 C63.4477153,60 63,59.5522847 63,59 C63,58.4477153 63.4477153,58 64,58 C64.5522847,58 65,58.4477153 65,59 C65,59.5522847 64.5522847,60 64,60 Z" id="Combined-Shape" fill="#DE350C"></path>
                        <ellipse id="Oval" fill="#F4F0EF" cx="51" cy="83" rx="20" ry="3"></ellipse>
                        <g id="Group" transform="translate(41.000000, 29.000000)" stroke="#FFFFFF" stroke-linecap="round" stroke-width="5">
                            <path d="M0,0 L20.6529767,20.6529767" id="Path-2"></path>
                            <path d="M0,0 L20.6529767,20.6529767" id="Path-2" transform="translate(10.326488, 10.326488) scale(-1, 1) translate(-10.326488, -10.326488) "></path>
                        </g>
                    </g>
                </g>
            </g>
        </g>
    </g>
</svg>