<?xml version="1.0" encoding="UTF-8"?>
<svg width="102px" height="86px" viewBox="0 0 102 86" version="1.1" xmlns="http://www.w3.org/2000/svg" xmlns:xlink="http://www.w3.org/1999/xlink">
    <!-- Generator: Sketch 50.2 (55047) - http://www.bohemiancoding.com/sketch -->
    <title>ic_toast_success</title>
    <desc>Created with Sketch.</desc>
    <defs>
        <linearGradient x1="19.8650066%" y1="8.36910872%" x2="75.9505799%" y2="89.2158221%" id="linearGradient-1">
            <stop stop-color="#8EE56F" offset="0%"></stop>
            <stop stop-color="#4FC74D" offset="100%"></stop>
        </linearGradient>
    </defs>
    <g id="7.配置管理_网络参数配置_节点_删除" stroke="none" stroke-width="1" fill="none" fill-rule="evenodd">
        <g id="删除节点成功后页面" transform="translate(-669.000000, -388.000000)">
            <g id="toast/success" transform="translate(636.000000, 364.000000)">
                <g id="toast_success">
                    <g id="ic_toast_success" transform="translate(33.000000, 24.000000)">
                        <path d="M51,6.79289322 C68.673112,6.79289322 83,21.1197812 83,38.7928932 C83,56.4660052 68.673112,70.7928932 51,70.7928932 C33.326888,70.7928932 19,56.4660052 19,38.7928932 C19,21.1197812 33.326888,6.79289322 51,6.79289322 Z M82.3033009,5.06066017 C82.8890873,5.64644661 82.8890873,6.59619408 82.3033009,7.18198052 L79.1819805,10.3033009 C78.5961941,10.8890873 77.6464466,10.8890873 77.0606602,10.3033009 C76.4748737,9.71751442 76.4748737,8.76776695 77.0606602,8.18198052 L80.1819805,5.06066017 C80.767767,4.47487373 81.7175144,4.47487373 82.3033009,5.06066017 Z M86.4142136,14.5 C86.4142136,15.3284271 85.7426407,16 84.9142136,16 L80.5,16 C79.6715729,16 79,15.3284271 79,14.5 C79,13.6715729 79.6715729,13 80.5,13 L84.9142136,13 C85.7426407,13 86.4142136,13.6715729 86.4142136,14.5 Z M72.5,0.792893219 C73.3284271,0.792893219 74,1.46446609 74,2.29289322 L74,6.70710678 C74,7.53553391 73.3284271,8.20710678 72.5,8.20710678 C71.6715729,8.20710678 71,7.53553391 71,6.70710678 L71,2.29289322 C71,1.46446609 71.6715729,0.792893219 72.5,0.792893219 Z" id="Combined-Shape" fill="url(#linearGradient-1)"></path>
                        <path d="M65,57 C64.4477153,57 64,56.5522847 64,56 C64,55.4477153 64.4477153,55 65,55 C65.5522847,55 66,55.4477153 66,56 C66,56.5522847 65.5522847,57 65,57 Z M68,57 C67.4477153,57 67,56.5522847 67,56 C67,55.4477153 67.4477153,55 68,55 C68.5522847,55 69,55.4477153 69,56 C69,56.5522847 68.5522847,57 68,57 Z M67,60 C66.4477153,60 66,59.5522847 66,59 C66,58.4477153 66.4477153,58 67,58 C67.5522847,58 68,58.4477153 68,59 C68,59.5522847 67.5522847,60 67,60 Z M64,60 C63.4477153,60 63,59.5522847 63,59 C63,58.4477153 63.4477153,58 64,58 C64.5522847,58 65,58.4477153 65,59 C65,59.5522847 64.5522847,60 64,60 Z" id="Combined-Shape" fill="#2EB01E"></path>
                        <ellipse id="Oval" fill="#F4F0EF" cx="51" cy="83" rx="20" ry="3"></ellipse>
                        <polyline id="Path-8" stroke="#FFFFFF" stroke-width="5" stroke-linecap="round" stroke-linejoin="round" transform="translate(52.358156, 38.151049) rotate(-315.000000) translate(-52.358156, -38.151049) " points="46.2407343 52.2974957 58.4123071 51.2100716 58.4755775 24.0046025"></polyline>
                    </g>
                </g>
            </g>
        </g>
    </g>
</svg>