<?xml version="1.0" encoding="UTF-8"?>
<svg width="64px" height="64px" viewBox="0 0 64 64" version="1.1" xmlns="http://www.w3.org/2000/svg" xmlns:xlink="http://www.w3.org/1999/xlink">
    <!-- Generator: Sketch 50.2 (55047) - http://www.bohemiancoding.com/sketch -->
    <title>ic_toast_notice</title>
    <desc>Created with Sketch.</desc>
    <defs>
        <linearGradient x1="21.1164538%" y1="12.5039543%" x2="79.1707109%" y2="84.7582589%" id="linearGradient-1">
            <stop stop-color="#FFE300" offset="0%"></stop>
            <stop stop-color="#FFC300" offset="100%"></stop>
        </linearGradient>
    </defs>
    <g id="7.配置管理_网络参数配置_节点_删除" stroke="none" stroke-width="1" fill="none" fill-rule="evenodd">
        <g id="配置管理_网络参数配置节点_删除按钮可点击" transform="translate(-688.000000, -389.000000)">
            <g id="dialogue_normal" transform="translate(516.000000, 353.000000)">
                <g id="ic/toast/notice" transform="translate(172.000000, 36.000000)">
                    <g id="ic_toast_notice">
                        <path d="M64,32 C64,49.6733333 49.6733333,64 32,64 C14.3266667,64 0,49.6733333 0,32 C0,14.3266667 14.3266667,0 32,0 C49.6733333,0 64,14.3266667 64,32" id="Fill-1" fill="url(#linearGradient-1)"></path>
                        <path d="M47,49 C46.4477153,49 46,48.5522847 46,48 C46,47.4477153 46.4477153,47 47,47 C47.5522847,47 48,47.4477153 48,48 C48,48.5522847 47.5522847,49 47,49 Z M50,49 C49.4477153,49 49,48.5522847 49,48 C49,47.4477153 49.4477153,47 50,47 C50.5522847,47 51,47.4477153 51,48 C51,48.5522847 50.5522847,49 50,49 Z M49,52 C48.4477153,52 48,51.5522847 48,51 C48,50.4477153 48.4477153,50 49,50 C49.5522847,50 50,50.4477153 50,51 C50,51.5522847 49.5522847,52 49,52 Z M46,52 C45.4477153,52 45,51.5522847 45,51 C45,50.4477153 45.4477153,50 46,50 C46.5522847,50 47,50.4477153 47,51 C47,51.5522847 46.5522847,52 46,52 Z" id="Combined-Shape" fill="#FCAC0A"></path>
                        <path d="M35,48.5 C35,49.8807143 33.8807143,51 32.5,51 C31.1192857,51 30,49.8807143 30,48.5 C30,47.1192857 31.1192857,46 32.5,46 C33.8807143,46 35,47.1192857 35,48.5 Z M29,18.5 C29,17.1192881 29.8923261,15 32.5,15 C35.1076739,15 36,17.1192881 36,18.5 L35,38.5 C35,39.8807119 33.8807119,41 32.5,41 C31.1192881,41 30,39.8807119 30,38.5 L29,18.5 Z" id="Combined-Shape" fill="#FFFFFF"></path>
                    </g>
                </g>
            </g>
        </g>
    </g>
</svg>