<?xml version="1.0" encoding="UTF-8"?>
<svg width="1920px" height="366px" viewBox="0 0 1920 366" version="1.1" xmlns="http://www.w3.org/2000/svg" xmlns:xlink="http://www.w3.org/1999/xlink">
    <title>banner备份</title>
    <defs>
        <rect id="path-1" x="0" y="0" width="1920" height="366"></rect>
        <linearGradient x1="53.7304761%" y1="52.6146544%" x2="48.3043298%" y2="48.4399182%" id="linearGradient-3">
            <stop stop-color="#76B6FD" offset="0%"></stop>
            <stop stop-color="#417FF9" offset="100%"></stop>
        </linearGradient>
        <linearGradient x1="31.8685451%" y1="53.4881394%" x2="100%" y2="53.4881394%" id="linearGradient-4">
            <stop stop-color="#417FF9" offset="0%"></stop>
            <stop stop-color="#417FF9" stop-opacity="0" offset="100%"></stop>
        </linearGradient>
    </defs>
    <g id="banner备份" stroke="none" stroke-width="1" fill="none" fill-rule="evenodd">
        <mask id="mask-2" fill="white">
            <use xlink:href="#path-1"></use>
        </mask>
        <use id="矩形" fill="#417FF9" xlink:href="#path-1"></use>
        <path d="M26,100.19233 C340.148232,298.580728 504,366 809,281.816225 C1114,197.632449 1405.22065,-61.6488029 1778.27727,60.6755986 C2026.98169,142.2252 2129.99794,258.869526 2087.32603,410.608579 L77,513.947477 L-122.341317,270.148013 C-232.879261,24.5852923 -183.432155,-32.0666021 26,100.19233 Z" id="路径-3" fill="url(#linearGradient-3)" opacity="0.403459821" mask="url(#mask-2)"></path>
        <rect id="矩形" fill="url(#linearGradient-4)" mask="url(#mask-2)" transform="translate(1620.000000, 207.000000) scale(-1, 1) translate(-1620.000000, -207.000000) " x="1320" y="24" width="600" height="366"></rect>
        <rect id="矩形" fill="url(#linearGradient-4)" mask="url(#mask-2)" x="0" y="24" width="600" height="366"></rect>
        <g id="编组" mask="url(#mask-2)">
            <g transform="translate(796.000000, 91.000000)">
                <g transform="translate(42.900000, 0.000000)">
                    <g id="Group" transform="translate(18.820000, 47.640000) scale(-1, 1) translate(-18.820000, -47.640000) translate(-13.180000, 19.140000)">
                        <path d="M22.286055,4.79768715 C25.9038141,10.5216337 25.1101488,13.0163637 27.4521389,18.4796708 C29.1363781,22.4086013 31.0870122,20.7357957 36.2377837,24.0805071 C41.3885552,27.4252185 39.9149515,31.9899876 50.7601565,33.1548243 C61.6053616,34.3196611 55.7875003,38.0666435 63.8048245,40.8246902 C62.1222757,43.3569318 59.528094,47.8913841 52.1233401,49.0530009 C44.7185862,50.2146177 40.9379193,57.2226404 40.0207429,56.0738798 C37.0901036,53.0332619 28.7579845,43.3811355 25.2131133,40.6884132 C22.9371242,38.9595474 22.5083528,38.3293281 21.8865676,37.8802672 C20.503224,37.1504376 18.6861276,36.6022011 16.4365576,36.2352246 C11.4373022,35.4196869 10.5452415,42.5881937 7.88339949,40.4804845 C-4.06311862,31.0209501 1.12382684,25.845654 1.10181131,19.6580718 C1.07974503,13.456223 -0.143952226,11.7227944 0.164710522,9.02662468 C0.016349861,6.80052876 1.03970205,4.68552545 3.23451688,2.68139445 C7.69950712,-1.39568083 18.6682959,-0.926259419 22.286055,4.79768715 Z" id="Combined-Shape" fill="#362A51"></path>
                        <path d="M6.23072459,24.8532243 L17.4221566,19.8716227 L18.2983482,20.8724885 L18.758638,33.9680542 C17.5841891,36.7937004 15.2906575,38.2065234 11.8780433,38.2065234 C8.46542911,38.2065234 5.91960104,36.8585238 4.24055909,34.1625246 L6.23072459,24.8532243 Z" id="Rectangle" fill="#FFAEAE"></path>
                        <polygon id="Rectangle" fill-opacity="0.604785839" fill="#000000" points="6.13730713 25.2991406 10.6097466 25.5550082 12.6618375 26.581033 5.6730835 27.6413269"></polygon>
                        <path d="M13.3583132,26.5871013 C16.9685422,25.9944113 18.0216519,23.7683165 18.2787429,20.8585025 C16.9685422,19.3158598 15.9831499,18.1984205 15.2115514,15.9987918 C13.9635452,12.4410478 13.5640164,10.2310307 14.7884772,8.46090617 C11.3733352,10.6120292 7.50405301,11.2922514 2.34507733,11.4620226 C2.17670262,12.8808776 2.0694377,14.5486246 1.95583013,16.4861038 C1.66934648,21.3718356 1.70079541,23.7631439 3.09284216,24.3776054 C4.48488891,24.9920669 10.6110653,27.0381159 13.3583132,26.5871013 Z" id="Oval" fill="#FFAEAE"></path>
                        <path d="M6.7958658,21.929178 C7.42589182,22.035151 8.02799881,21.9796104 8.60218679,21.7625562 C9.17637476,21.5455019 9.5848113,21.1705783 9.82749642,20.6377852" id="Line-75" stroke="#3F3F3F" stroke-width="0.99" stroke-linecap="round" stroke-linejoin="round"></path>
                        <path d="M7.13271365,15.2636196 C6.18373388,17.2146914 5.7360353,18.3163434 5.7896179,18.5685756 C5.8432005,18.8208078 6.29089908,18.9507354 7.13271365,18.9583584" id="Line-74" stroke="#3F3F3F" stroke-width="0.99" stroke-linecap="round" stroke-linejoin="round"></path>
                        <path d="M16.347534,19.7299096 C17.526746,20.1845489 18.9300296,19.2511865 19.4818557,17.6451864 C20.0336817,16.0391862 19.525085,14.3687079 18.345873,13.9140686 C17.166661,13.4594293 15.7633774,14.3927917 15.2115514,15.9987918 C14.6597253,17.604792 15.1683221,19.2752703 16.347534,19.7299096 Z" id="Oval" fill="#FFAEAE"></path>
                        <path d="M16.515478,15.6844916 C16.9025615,15.2341198 17.442009,15.0281878 17.9176575,15.2064777 C18.5914929,15.4590551 18.8821196,16.3870986 18.5667905,17.2793209 C18.3378714,17.9270461 17.8525274,18.3778267 17.3459041,18.4796051 C17.3352745,18.3962934 17.3228845,18.314258 17.3083236,18.2319142 C17.1474952,17.3224209 16.8508999,16.4371498 16.4369758,15.7833431 Z" id="Combined-Shape" fill="#760000" style="mix-blend-mode: multiply;" opacity="0.300269717"></path>
                    </g>
                </g>
                <g transform="translate(0.000000, 52.800000)">
                    <g id="Group-26-Copy-4" transform="translate(91.480000, 33.510000) scale(-1, 1) translate(-91.480000, -33.510000) translate(32.480000, -17.490000)">
                        <path d="M59.9787212,18.0550951 C61.8047242,17.5534136 69.7865549,17.241437 72.0829917,17.5998558 C74.3794285,17.9582747 83.0442227,17.0873065 96.5549626,31.3579957 C102.98208,38.1466238 108.311435,47.1930325 112.543029,58.4972218 C109.270007,59.3758079 103.242869,61.1598273 94.4616138,63.8492798 C93.4908083,64.7449334 93.1880666,68.3243108 93.5533887,74.5874121 C93.9187107,80.8505134 94.9562206,89.8680427 96.6659184,101.64 L36.6160492,101.64 C38.902049,88.7403516 40.4466992,79.7228223 41.25,74.5874121 C42.0533008,69.452002 42.0586719,65.8195312 41.2661133,63.69 C31.6213477,63.69 24.8597852,63.69 20.9814258,63.69 C24.7752531,50.7409008 29.17668,41.6919896 35.0926776,34.3460993 C45.8061409,21.0431986 58.1527181,18.5567765 59.9787212,18.0550951 Z" id="Rectangle" fill="#F3626D"></path>
                        <polygon id="Rectangle" fill="#FFBB0D" transform="translate(67.815000, 61.913483) scale(-1, 1) translate(-67.815000, -61.913483) " points="55.8595833 42.24 85.14 42.24 79.7704167 81.5869651 50.49 81.5869651"></polygon>
                        <path d="M70.9790039,62.1661071 L83.7462415,71.38953 L84.1636963,73.9889648 C78.3311182,69.8130469 74.7760986,67.2909961 73.4986377,66.4228125 C72.2211768,65.5546289 69.0095313,64.2101296 63.8637012,62.3893147 L70.9790039,62.1661071 Z" id="Rectangle" fill="#533B0F"></path>
                        <path d="M94.4616138,63.8492798 L112.543029,58.4970885 C112.962312,58.6755725 113.979658,61.5795898 115.595068,67.2091406 C117.210479,72.8386914 116.40374,77.4189453 113.174854,80.9499023 L98.4871143,72.943374 L94.4616138,63.8492798 Z" id="Rectangle" fill="#FFAEAE"></path>
                        <path d="M45.3163477,53.79 L41.8171875,70.5422143 C41.8840891,68.9823123 41.8840891,67.7982409 41.8171875,66.99 C41.7502859,66.1817591 41.5612234,65.0817591 41.25,63.69 L45.3163477,53.79 Z" id="Rectangle" fill-opacity="0.602617" fill="#000000"></path>
                        <path d="M89.76,52.8 L94.4616138,63.8492798 L94.985376,71.9786294 L92.7549756,71.7177979 C92.7491337,69.5225819 92.5268242,67.039203 92.0880469,64.2676611 C91.6492696,61.4961192 90.8732539,57.6735655 89.76,52.8 Z" id="Rectangle" fill-opacity="0.602617" fill="#000000"></path>
                        <path d="M74.5913506,58.2191212 C90.7536075,62.5124407 101.034682,65.0951536 105.434573,65.9672599 C109.834464,66.8393663 113.174245,67.6279131 115.453916,68.3329005 C116.411063,75.4775294 115.198388,80.1611551 111.815891,82.3837776 C108.433393,84.6064 103.597044,83.7819052 97.3068436,79.910293 C85.1436795,72.4756258 77.9933035,68.0291658 75.8557156,66.5709132 C72.6493338,64.3835342 66.1719559,63.4515384 64.0691727,62.3978956 C61.9663895,61.3442527 60.3930887,58.1982471 60.3930887,57.5961378 C60.3930887,56.9940284 60.2767329,56.2495069 61.4723441,56.2495069 C62.2694183,56.2495069 64.6662192,56.5147608 68.6627469,57.0452687 C66.8864187,56.0085401 65.9982547,55.0719679 65.9982547,54.2355518 C65.9982547,52.9809278 69.3163016,54.6686768 71.522532,55.6986378 C72.9933523,56.3852784 74.0162919,57.2254395 74.5913506,58.2191212 Z" id="Rectangle" fill="#FFAEAE"></path>
                        <line x1="94.545" y1="63.195" x2="104.775" y2="65.505" id="Line-14" stroke="#3F3F3F" stroke-width="0.99" stroke-linecap="round"></line>
                        <line x1="60.8420047" y1="58.0086378" x2="68.7620047" y2="58.9986378" id="Line-15" stroke="#3F3F3F" stroke-width="0.66" stroke-linecap="round"></line>
                        <line x1="61.8320047" y1="59.9886378" x2="69.4220047" y2="61.3086378" id="Line-15-Copy" stroke="#3F3F3F" stroke-width="0.66" stroke-linecap="round"></line>
                        <path d="M52.5820569,20.5460138 C57.6274828,18.1712541 62.9618116,16.9838742 68.5850434,16.9838742 C74.2082753,16.9838742 79.3790322,18.3828498 84.0973144,21.180801 C78.2549497,28.437014 71.9748286,31.8941894 65.2569509,31.5523273 C58.5390733,31.2104652 54.3141086,27.541694 52.5820569,20.5460138 Z" id="Rectangle" fill="#FFAEAE"></path>
                        <path d="M49.17,26.73 C52.635026,33.33 57.9979492,36.63 65.2587695,36.63 C72.5195898,36.63 79.6966667,33.8914222 86.79,28.4142665" id="Line-3" stroke="#3F3F3F" stroke-width="0.99" stroke-linecap="round"></path>
                        <line x1="26.2070984" y1="57.585" x2="40.0670984" y2="53.295" id="Line-67-Copy" stroke="#3F3F3F" stroke-width="0.99" stroke-linecap="round" transform="translate(33.151049, 55.440000) scale(-1, 1) translate(-33.151049, -55.440000) "></line>
                        <path d="M24.4910854,59.73 L41.2661133,63.47 C39.7746203,68.740853 38.0694055,73.1435027 36.1504687,76.6779492 C33.2720636,81.9796189 23.3908189,84.3596797 18.4092136,76.6779492 C15.0881434,71.5567956 17.115434,65.9074792 24.4910854,59.73 Z" id="Rectangle" fill="#FFAEAE"></path>
                        <path d="M7.16095668,41.5321289 C5.1925143,37.500206 2.60099218,35.3097257 1.43631684,34.6079122 C0.271641502,33.9060988 -0.141724403,33.7702451 0.0417606317,33.3841776 C0.225245667,32.9981101 0.724175749,32.8274461 1.68729732,32.8274461 C2.32937837,32.8274461 3.11356124,33.0130233 4.03984592,33.3841776 C2.95878581,32.0924162 2.43825097,31.1751818 2.47824139,30.6324744 C2.53822703,29.8184133 3.37829727,29.3402229 4.03984592,29.9115561 C4.48087835,30.2924449 5.29673007,31.1531631 6.48740106,32.4937109 C6.24772811,31.1531631 6.07119856,30.1653911 5.95781243,29.5303948 C5.78773322,28.5779003 6.87080785,27.6991149 7.55590413,29.1440937 C8.24100042,30.5890724 8.74754345,32.0260208 9.05389119,32.4937109 C10.1592312,34.1811938 11.8906303,35.1763657 12.3090292,34.7040383 C13.6113766,33.2338279 13.945877,31.9051663 14.2555559,31.2746488 C15.1122469,29.5303948 17.0159915,29.9115561 16.1785351,32.4937109 C15.5379107,34.4689673 15.9508691,38.771834 16.7082403,41.216967 C17.4656115,43.6621 35.7925989,68.6221717 36.4295508,70.3725 C37.0665026,72.1228283 39.254209,77.7623061 29.865,80.9499023 C20.475791,84.1374986 16.2020827,72.5129115 14.2555559,65.505 C12.3090292,58.4970885 9.12939905,45.5640518 7.16095668,41.5321289 Z" id="Rectangle" fill="#FFAEAE"></path>
                        <line x1="30.2705246" y1="66.2131328" x2="34.0515738" y2="61.0110443" id="Line-67-Copy-2" stroke="#3F3F3F" stroke-width="0.99" stroke-linecap="round" transform="translate(32.250525, 63.651044) scale(-1, 1) translate(-32.250525, -63.651044) "></line>
                        <path d="M6.6,32.67 C7.00968578,33.334943 7.49292967,33.8770987 8.04973167,34.2964669 C8.60653367,34.7158352 9.55328978,35.0536796 10.89,35.31" id="Line-64" stroke="#3F3F3F" stroke-width="0.66" stroke-linecap="round"></path>
                        <path d="M3.96,33.33 C5.29108552,34.4138092 6.22089923,35.1447139 6.74944113,35.5227139 C7.27798303,35.9007139 8.43816932,36.039129 10.23,35.9379591" id="Line-65" stroke="#3F3F3F" stroke-width="0.66" stroke-linecap="round"></path>
                        <path d="M95.37,59.3324174 C98.2621302,58.214238 102.708072,56.9081989 106.652247,55.8733486 C108.549006,55.3756876 112.064861,54.5712381 117.199813,53.46" id="Line-67" stroke="#3F3F3F" stroke-width="0.99" stroke-linecap="round"></path>
                    </g>
                </g>
            </g>
        </g>
        <g id="编组-2" mask="url(#mask-2)">
            <g transform="translate(690.000000, 81.000000)" id="编组">
                <g transform="translate(0.000000, 56.000000)">
                    <g id="Group-Copy-2" transform="translate(36.050000, -0.350000)">
                        <path d="M72.1002587,2.18920107 L72.0993121,89.5999173 L34.9993121,89.5999173 L34.9972121,2.27853201 C39.5792067,1.2279631 44.8579639,0.532308015 50.9427559,0.269335938 C58.8284203,-0.0714661032 65.8809212,0.568488941 72.1002587,2.18920107 Z" id="Path" fill="#F7F8FF"></path>
                        <path d="M104.302371,32.747345 L83.148584,41.1449951 L92.1874023,104.3 L63.7,104.3 L63.700628,0.652140982 C95.4112305,3.15 98.2776007,13.7288097 104.302371,32.747345 Z" id="Path" fill="#1CB674"></path>
                        <path d="M39.8974948,1.33613956 L44.8714312,89.6 L25.4761719,89.6 L27.475,42 L4.2,40.6 C4.76058835,25.2897217 1.37265625,4.55 39.8974948,1.33613956 Z" id="Path" fill="#1CB674"></path>
                        <polygon id="Rectangle" fill-opacity="0.604785839" fill="#000000" points="30.453418 32.6402344 29.2126953 82.6259766 24.5 85.05 27.476709 42"></polygon>
                        <path d="M118.733038,14.0727714 C119.697365,11.4927408 120.741967,9.50931257 121.866843,8.12248676 C123.554158,6.04224803 127.187229,3.87780672 128.404382,4.50007255 C129.621535,5.12233837 125.519003,8.94633977 126.123218,9.44126712 C126.727433,9.93619446 128.687757,9.08774319 131.909668,8.05 C135.131579,7.01225681 137.462441,3.37216797 138.241797,3.37216797 C139.021153,3.37216797 139.170459,9.93210449 134.097814,12.95 C130.71605,14.9619303 127.759595,16.8070559 125.228449,18.4853767 L123.804311,21.7 L117.377747,18.1866506 L118.733038,14.0727714 Z" id="Rectangle-Copy-8" fill="#FFAEAE"></path>
                        <polyline id="Line-7" stroke="#3F3F3F" stroke-width="0.7" stroke-linecap="round" stroke-linejoin="round" points="127.75 11.7919922 134.05 8.99199219 136.981592 5.25"></polyline>
                        <polyline id="Line-7-Copy" stroke="#3F3F3F" stroke-width="0.7" stroke-linecap="round" stroke-linejoin="round" points="128.45 13.5419922 134.75 10.7419922 137.681592 7"></polyline>
                        <path d="M82.6064087,41.2696655 L104.269025,32.6402344 C105.0185,35.5009603 105.802254,38.2867757 106.620288,40.9976807 C107.650122,36.9441976 111.083073,28.6301595 116.919141,16.0555664 L125.931641,20.1444824 C125.436277,26.3741417 125.123562,30.7346723 124.993494,33.2260742 C124.117187,50.0113781 118.524219,69.2589844 105.17688,70.2037109 C98.2931782,70.6909403 93.3350551,68.2340236 89.2952653,59.4771669 C87.7317877,56.0880921 85.5021688,50.018925 82.6064087,41.2696655 Z" id="Rectangle-Copy-2" fill="#1CB674"></path>
                        <line x1="115.85" y1="19.95" x2="127.75" y2="25.55" id="Line-11" stroke="#3F3F3F" stroke-width="1.05" stroke-linecap="round"></line>
                        <line x1="106.05" y1="40.95" x2="103.25" y2="49.35" id="Line-5" stroke="#3F3F3F" stroke-width="1.05" stroke-linecap="round" stroke-linejoin="round"></line>
                        <polygon id="Rectangle-Copy-12" fill="#FFBB0D" points="0 40.6 42 45.7287386 42 77.2287386 0 72.1"></polygon>
                        <path d="M4.61835937,40.775 L27.475,42 C26.8702474,60.9068359 26.5678711,75.6674479 26.5678711,86.2818359 C26.5678711,102.203418 28.3628601,107.022028 28.4255371,108.294238 C28.4882141,109.566449 35.2503662,111.110132 35.563623,112.614209 C35.8768799,114.118286 29.066748,111.724683 29.066748,113.620117 C29.066748,115.515552 37.0551392,114.24364 37.1912598,115.854614 C37.3273804,117.465588 32.3141602,118.9125 29.066748,118.9125 C25.3538086,118.9125 21.7714312,117.465588 21.252417,115.854614 C20.7333984,114.24364 8.47357912,84.6521484 5.98678956,68.3511719 C4.32892985,57.4838542 3.87278646,48.2917969 4.61835937,40.775 Z" id="Rectangle-Copy-13" fill="#FFAEAE"></path>
                        <polyline id="Line-12" stroke="#3F3F3F" stroke-width="0.7" stroke-linecap="round" stroke-linejoin="round" points="36.4621216 116.396021 29.4621216 116.046021 27.65 115.15"></polyline>
                        <polyline id="Line-12-Copy" stroke="#3F3F3F" stroke-width="0.7" stroke-linecap="round" stroke-linejoin="round" points="34.7121216 117.796021 27.7121216 117.446021 25.9 116.55"></polyline>
                        <path d="M4.44746094,30.7842773 L30.453418,33.3716797 L26.9308594,67.378418 L28.5461914,102.013379 L17.2614258,109.847363 C11.7829962,96.7848865 8.10685686,85.2863839 6.23300781,75.3518555 C4.35915876,65.417327 3.76397647,50.5614677 4.44746094,30.7842773 Z" id="Rectangle" fill="#1CB674"></path>
                        <line x1="28" y1="97.3" x2="13.65" y2="106.75" id="Line-13" stroke="#3F3F3F" stroke-width="1.05" stroke-linecap="round" stroke-linejoin="round"></line>
                        <polygon id="Rectangle" fill-opacity="0.604785839" fill="#000000" points="79.1225586 31.2142578 83.4481689 44.4404297 86.7275391 66.9009277"></polygon>
                        <line x1="68.95" y1="1.88825684" x2="68.95" y2="104.65" id="Line-6" stroke="#3F3F3F" stroke-width="1.05" stroke-linecap="round" stroke-linejoin="round"></line>
                        <line x1="34.65" y1="2.45" x2="37.2123704" y2="44.9121379" id="Line-6-Copy" stroke="#3F3F3F" stroke-width="1.05" stroke-linecap="round" stroke-linejoin="round"></line>
                    </g>
                </g>
                <g transform="translate(45.000000, 0.000000)">
                    <g id="Group-2-Copy-2" transform="translate(44.200000, 39.800000) scale(-1, 1) translate(-44.200000, -39.800000) translate(31.700000, 16.800000)">
                        <path d="M9.1,29.05 L20.6146895,20.1981445 L22.3285645,39.9772461 C20.8292155,43.4804362 18.0122396,45.2320313 13.8776367,45.2320313 C9.74303385,45.2320313 7.55234375,43.6037109 7.30556641,40.3470703 L9.1,29.05 Z" id="Rectangle-Copy-3" fill="#FFAEAE"></path>
                        <path d="M9.1,29.5313354 C10.2605762,29.8407333 11.3870817,30.012002 12.4795166,30.0451416 C13.5719515,30.0782812 15.317736,29.9941449 17.7168701,29.7927327 L8.60422363,32.7150879 L9.1,29.5313354 Z" id="Rectangle-Copy-4" fill-opacity="0.604785839" fill="#000000"></path>
                        <path d="M13.6826991,29.675796 C20.9278528,28.5183871 19.4824249,21.9591826 19.4824249,15.3169285 C19.4824249,8.67467431 14.5804127,4.55 7.88573498,4.55 C1.19105722,4.55 1.19628886,8.33365393 1.19628886,17.9891113 C1.19628886,23.4109715 1.65498047,27.389209 3.9046875,28.1223633 C6.15439453,28.8555176 10.4271391,30.1958697 13.6826991,29.675796 Z" id="Oval-Copy-3" fill="#FFAEAE"></path>
                        <path d="M-1.49213975e-14,4.10976562 C-1.49213975e-14,-0.0331786355 7.72308805,-0.316450925 16.356237,0.738110352 C24.989386,1.79267163 24.6558594,7.97760184 23.5463867,12.5443499 C22.8067383,15.5888486 21.9612255,20.054176 21.0098483,25.940332 L20.4893062,18.2192557 C18.4207274,18.3859352 17.1909586,18.0366387 16.8,17.1713663 C15.3925996,14.0564978 15.7733318,8.97620278 13.773774,9.53637589 C9.87394807,10.6289063 3.05834746,9.01081565 1.5753418,9.45512695 C1.41837158,10.5894653 1.31305542,11.9032043 1.25939331,13.396344 C1.03150632,13.2354842 0.816957574,12.5463789 0.61574707,11.3290283 C0.37650436,9.88157773 -1.49213975e-14,6.14208984 -1.49213975e-14,4.10976562 Z" id="Rectangle-Copy-5" fill="#362A51"></path>
                        <path d="M6.3,24.09566 C6.88188911,24.2060862 7.43799235,24.1482116 7.9683097,23.9220363 C8.49862705,23.695861 8.87585715,23.3051822 9.1,22.75" id="Line-75-Copy-2" stroke="#3F3F3F" stroke-width="1.05" stroke-linecap="round" stroke-linejoin="round"></path>
                        <path d="M7,17.15 C6.01396752,18.9982365 5.54878864,20.0418237 5.60446336,20.2807614 C5.66013808,20.5196992 6.12531696,20.6427787 7,20.65" id="Line-74-Copy-2" stroke="#3F3F3F" stroke-width="1.05" stroke-linecap="round" stroke-linejoin="round"></path>
                        <path d="M18.6151948,21.2034772 C20.1905214,21.782498 22.0651886,20.5937838 22.8023812,18.5484098 C23.5395738,16.5030358 22.8601319,14.3755435 21.2848052,13.7965228 C19.7094786,13.217502 17.8348114,14.4062162 17.0976188,16.4515902 C16.3604262,18.4969642 17.0398681,20.6244565 18.6151948,21.2034772 Z" id="Oval-Copy-4" fill="#FFAEAE"></path>
                        <path d="M18.6381031,16.0970557 C19.1648044,15.3807153 19.9365043,15.0431738 20.7766785,15.2958374 C21.8268962,15.6116669 22.1932562,17.1094635 21.7017944,18.2251221 C21.3947144,18.9222189 20.865039,19.4391301 20.2546329,19.6518273 C20.2532221,19.6468601 20.2522839,19.6425271 20.2513398,19.6381934 C19.9620082,18.310071 19.3892799,17.0229897 18.5778116,16.1843708 Z" id="Combined-Shape-Copy-2" fill="#760000" style="mix-blend-mode: multiply;" opacity="0.300269717"></path>
                    </g>
                </g>
            </g>
        </g>
        <g id="编组" mask="url(#mask-2)">
            <g transform="translate(994.000000, 97.000000)" id="人物/男1/半身">
                <g id="编组" transform="translate(0.000000, 57.240000)">
                    <g id="Group-26-Copy-4" transform="translate(31.320000, -20.880000)">
                        <path d="M115.779258,78.8331211 C105.445049,82.3558064 94.7862988,84.117149 83.8030078,84.117149 C69.6953928,84.117149 58.6026585,78.8331211 51.7088672,78.8331211 C20.9201786,78.8331211 3.68388958,78.8331211 0,78.8331211 C1.43525369,71.2530716 -0.616575927,21.117149 57.2509253,21.117149 C95.8292595,21.117149 115.338704,40.3558064 115.779258,78.8331211 Z" id="Rectangle" fill="#678DFF"></path>
                        <path d="M2.54128804,60.3244537 L25.8199805,66.4483008 C25.3358789,67.9905762 24.8529199,69.7188135 24.3711035,71.6330127 C23.8892871,73.5472119 23.3928723,75.947248 22.881859,78.8331211 L0,78.8331211 C0.508769143,73.7771396 0.93088029,70.0747323 1.26633344,67.725899 C1.60178659,65.3770657 2.02677145,62.9099173 2.54128804,60.3244537 Z" id="Rectangle" fill="#FFAEAE"></path>
                        <path d="M90.4152963,69.0213366 L114.442432,63.5627838 C114.707063,64.7359478 115.009977,66.883731 115.351174,70.0061334 C115.692371,73.1285357 115.835065,76.2133728 115.779258,79.2606445 L97.3507187,78.9306447 L92.6885187,78.9433594 L90.4152963,69.0213366 Z" id="Rectangle" fill="#FFAEAE"></path>
                        <path d="M47.8815196,64.3945688 L54.0561836,67.6771099 C54.9339674,68.1437525 55.2672632,69.2336255 54.8006206,70.1114093 C54.7780762,70.1538168 54.7538435,70.1953049 54.7279808,70.2357742 L46.7793921,82.6735117 C46.2626587,83.4820823 45.2024848,83.7431316 44.3693987,83.2669304 L38.5906845,79.9637539 C37.7276209,79.4704173 37.427898,78.3708377 37.9212346,77.5077741 C37.9293266,77.4936176 37.9376106,77.4795718 37.9460843,77.4656404 L45.4987232,65.0485383 C45.9943246,64.2337326 47.0394261,63.9468996 47.8815196,64.3945688 Z" id="Rectangle" fill="#362A51"></path>
                        <path d="M54.2168385,76.3041998 C55.0511397,78.0321295 77.0047793,80.1738519 83.3349813,80.1738519 C87.555116,80.1738519 90.69506,79.7269416 92.7548133,78.8331211 L115.779258,78.8803865 C114.928629,92.2208977 108.775969,99.1264852 97.3212782,99.597149 C85.8665873,100.067813 69.9733519,94.6231644 49.6415718,83.2632037 C45.6165291,81.4399955 43.0549466,79.5185307 41.9568241,77.4988092 C40.3096405,74.4692269 39.0707599,72.1885377 40.0531941,71.2530716 C40.7081502,70.6294275 43.2277212,72.1146799 47.611907,75.7088287 C49.6576773,77.2025006 50.6805624,77.2025006 50.6805624,75.7088287 C50.6805624,73.4683209 48.0242821,69.5787874 50.1752998,69.5787874 C52.3263175,69.5787874 53.3825373,74.5762701 54.2168385,76.3041998 Z" id="Rectangle" fill="#FFAEAE"></path>
                        <path d="M41.5873345,71.877149 C42.4051133,73.0120415 43.121058,73.9120415 43.7351686,74.577149 C44.3492791,75.2422565 45.2953199,76.1422565 46.5732909,77.277149" id="Line-6" stroke="#3F3F3F" stroke-width="0.72" stroke-linecap="round" stroke-linejoin="round"></path>
                        <path d="M40.0531941,72.957149 C40.7451608,73.9407225 41.3509601,74.7207225 41.8705921,75.297149 C42.3902241,75.8735755 43.1907202,76.6535755 44.2720803,77.637149" id="Line-6-Copy" stroke="#3F3F3F" stroke-width="0.72" stroke-linecap="round" stroke-linejoin="round"></path>
                        <polygon id="Rectangle" fill="#362A51" points="46.1983704 70.4035748 50.2950609 67.4474615 53.5267375 72.3848052 50.3582656 76.5624224"></polygon>
                        <path d="M28.6105758,58.68 C27.5344023,64.026717 26.785015,68.1643214 26.3624139,71.0928131 C25.9398129,74.0213047 25.7197899,76.6014074 25.702345,78.8331211 L22.7941142,78.8331211 C23.4246077,75.4587904 24.1579271,72.2451068 24.9940723,69.1920703 C25.8302175,66.1390338 27.0357187,62.6350103 28.6105758,58.68 Z" id="Rectangle" fill-opacity="0.604785839" fill="#000000"></path>
                        <path d="M87.0913477,58.4745117 C88.648056,62.5159118 89.802985,66.1499029 90.5561346,69.3764849 C91.3092842,72.603067 92.0421771,75.7710341 92.7548133,78.8803865 C91.9973043,79.1584133 91.3137158,79.3661572 90.7040479,79.5036182 C90.0943799,79.6410791 89.3492285,79.7676855 88.4685937,79.8834375 C88.5459876,76.3438465 88.4761145,72.9878895 88.2589746,69.8155664 C88.0418347,66.6432433 87.6526257,62.8628917 87.0913477,58.4745117 Z" id="Rectangle" fill-opacity="0.604785839" fill="#000000"></path>
                        <path d="M40.0531941,22.917149 C43.4066733,30.117149 48.5969522,33.717149 55.6240307,33.717149 C62.6511092,33.717149 69.5971402,30.7296095 76.4621235,24.7545306" id="Line-3" stroke="#3F3F3F" stroke-width="1.08" stroke-linecap="round" stroke-linejoin="round"></path>
                        <path d="M3.04205605,63.5627838 C7.7776689,60.7351239 22.7763737,54.2586161 25.1959409,53.157149" id="Line-67-Copy" stroke="#3F3F3F" stroke-width="1.08" stroke-linecap="round" stroke-linejoin="round" transform="translate(14.118998, 58.359966) scale(-1, 1) translate(-14.118998, -58.359966) "></path>
                        <path d="M91.8304338,64.2434225 C95.1917473,63.0235904 100.358943,61.5988205 104.942972,60.4698929 C107.147438,59.92699 111.233663,59.0494087 117.201645,57.837149" id="Line-67" stroke="#3F3F3F" stroke-width="1.08" stroke-linecap="round" stroke-linejoin="round"></path>
                        <line x1="92.7892715" y1="78.897149" x2="100.277944" y2="76.5624224" id="Line" stroke="#3F3F3F" stroke-width="1.08" stroke-linecap="round" stroke-linejoin="round"></line>
                    </g>
                </g>
                <g id="编组" transform="translate(46.800000, -0.360000)">
                    <g id="头/男1/正侧面" transform="translate(43.200000, 28.800000) scale(-1, 1) translate(-43.200000, -28.800000) ">
                        <g id="Group-2-Copy" transform="translate(46.340000, 39.040000) scale(-1, 1) translate(-46.340000, -39.040000) translate(31.840000, 14.040000)">
                            <path d="M11.88,33.12 L23.7236806,24.0152344 L25.4865234,44.3594531 C23.9443359,47.9627344 21.046875,49.764375 16.7941406,49.764375 C12.5414062,49.764375 10.288125,48.0895313 10.0342969,44.7398437 L11.88,33.12 Z" id="Rectangle-Copy-3" fill="#FFAEAE"></path>
                            <path d="M11.88,33.6150879 C13.0737355,33.9333257 14.2324269,34.1094878 15.3560742,34.1435742 C16.4797216,34.1776606 18.2753856,34.0911204 20.7430664,33.8839536 L11.3700586,36.8898047 L11.88,33.6150879 Z" id="Rectangle-Copy-4" fill-opacity="0.604785839" fill="#000000"></path>
                            <path d="M16.5936333,33.7636759 C24.0457915,32.5731982 22.5590656,25.8265879 22.5590656,18.994555 C22.5590656,12.1625222 17.516996,7.92 10.6310417,7.92 C3.74508742,7.92 3.75046855,11.8117583 3.75046855,21.7430859 C3.75046855,27.3198564 4.22226562,31.4117578 6.53625,32.1658594 C8.85023438,32.9199609 13.2450574,34.2986088 16.5936333,33.7636759 Z" id="Oval-Copy-3" fill="#FFAEAE"></path>
                            <path d="M0.982617187,1.25964844 C3.43757812,-2.34949219 4.48734375,4.35445312 16.0565625,4.35445312 C27.6257812,4.35445313 28.9146094,11.4455333 27.7734375,16.1427599 C27.0126562,19.2742443 25.6627373,23.8977384 23.7236806,30.0132422 L23.594715,21.9798059 C21.4670339,22.1512476 20.2021289,21.7919713 19.8,20.9019768 C18.3523882,17.6981121 18.7439984,12.4726657 16.6873104,13.0488438 C14.013144,13.7980074 10.1847868,13.6723338 5.20223878,12.6718228 L3.63702195,16.1427599 C0.230778148,8.62677934 -0.654023438,3.66574219 0.982617187,1.25964844 Z" id="Rectangle-Copy-5" fill="#362A51"></path>
                            <path d="M9,28.0241075 C9.59851452,28.1376887 10.1705064,28.0781606 10.7159757,27.8455231 C11.261445,27.6128856 11.6494531,27.2110446 11.88,26.64" id="Line-75-Copy-2" stroke="#3F3F3F" stroke-width="1.08" stroke-linecap="round" stroke-linejoin="round"></path>
                            <path d="M9.72,20.88 C8.70579516,22.7810433 8.22732545,23.8544472 8.28459088,24.1002118 C8.34185631,24.3459763 8.82032602,24.4725724 9.72,24.48" id="Line-74-Copy-2" stroke="#3F3F3F" stroke-width="1.08" stroke-linecap="round" stroke-linejoin="round"></path>
                            <path d="M21.6670575,25.0492909 C23.2873934,25.6448551 25.2156226,24.4221776 25.9738778,22.3183644 C26.732133,20.2145511 26.0332785,18.0262733 24.4129425,17.4307091 C22.7926066,16.8351449 20.8643774,18.0578224 20.1061222,20.1616356 C19.347867,22.2654489 20.0467215,24.4537267 21.6670575,25.0492909 Z" id="Oval-Copy-4" fill="#FFAEAE"></path>
                            <path d="M21.6713795,19.8234514 C22.2134815,19.0685167 23.0158308,18.7098849 23.8902979,18.9728613 C24.9705218,19.2977145 25.3473492,20.8383053 24.8418457,21.9858398 C24.5259268,22.7030018 23.9809579,23.2347534 23.3529478,23.4534435 C23.3518413,23.4479945 23.3508983,23.4436399 23.3499495,23.4392847 C23.0523099,22.0730262 22.4630958,20.7489931 21.6282585,19.886422 Z" id="Combined-Shape-Copy-2" fill="#760000" style="mix-blend-mode: multiply;" opacity="0.300269717"></path>
                        </g>
                    </g>
                </g>
            </g>
        </g>
        <g id="编组" mask="url(#mask-2)">
            <g transform="translate(956.000000, 174.000000)" id="元素/设备/电脑">
                <g id="Group-23-Copy-3" transform="translate(48.419868, 20.845734) scale(-1, 1) translate(-48.419868, -20.845734) translate(-0.160264, 0.000000)">
                    <path d="M38.1075753,0 L93.7981786,0 C94.9911137,-6.91909518e-15 95.9581786,0.96706494 95.9581786,2.16 C95.9581786,2.43720508 95.9048202,2.71181887 95.8010153,2.96885429 L81.6246883,38.0714286 L81.6246883,38.0714286 L21.2750929,38.0714286 L36.1047386,1.35114571 C36.4345043,0.534599675 37.2269546,-2.82321811e-16 38.1075753,0 Z" id="Rectangle-Copy-97" fill="#BDC9E9"></path>
                    <path d="M60.7623254,23.2081718 C62.5565204,22.5741609 63.5257303,20.7657558 62.9271162,19.1689859 C62.328502,17.5722161 60.3887469,16.7917458 58.5945519,17.4257568 C56.8003569,18.0597677 55.831147,19.8681728 56.4297612,21.4649426 C57.0283753,23.0617125 58.9681304,23.8421828 60.7623254,23.2081718 Z" id="Oval-Copy-18" stroke="#3F3F3F" stroke-width="0.72" stroke-linecap="square"></path>
                    <rect id="Rectangle-Copy-98" fill="#BDC9E9" x="0" y="38.0714286" width="81.8550186" height="2.92857143"></rect>
                    <line x1="81.4944238" y1="38.3459821" x2="20.9144981" y2="38.1629464" id="Line-2" stroke="#3F3F3F" stroke-width="0.72" stroke-linecap="square"></line>
                </g>
            </g>
        </g>
        <g id="问号" mask="url(#mask-2)">
            <g transform="translate(1108.000000, 87.000000)">
                <g id="Group-5" stroke-width="1" fill-rule="evenodd">
                    <path d="M23.4,-3.73034936e-14 C25.3882251,-3.72246354e-14 27,1.6117749 27,3.6 L27,22.4 C27,24.3882251 25.3882251,26 23.4,26 L17.289,25.999 L13.7855298,29.5710596 L10.282,25.999 L3.6,26 C1.6117749,26 2.4348735e-16,24.3882251 0,22.4 L0,3.6 C2.00601859e-16,1.6117749 1.6117749,-3.69382626e-14 3.6,-3.73034936e-14 L23.4,-3.73034936e-14 Z" id="Combined-Shape" fill="#F3626D"></path>
                </g>
                <text id="A" font-family="PingFang-SC-Heavy, PingFang SC" font-size="16" font-weight="600">
                    <tspan x="8.068" y="18" fill="#FFFFFF">A</tspan>
                </text>
            </g>
        </g>
        <g id="问号备份" mask="url(#mask-2)">
            <g transform="translate(909.000000, 103.000000)" id="Group-5">
                <path d="M16.0740741,0 C24.3174353,-1.5142809e-15 31,6.68256466 31,14.9259259 L31,15.0740741 C31,23.3174353 24.3174353,30 16.0740741,30 L14.9259259,30 C11.9312573,30 9.14257351,29.1180742 6.80543201,27.5997801 L4.47641924e-13,28.4405486 L1.92074017,22.403938 C0.697862087,20.2388751 3.26233385e-16,17.7379718 0,15.0740741 L0,14.9259259 C-1.0095206e-15,6.68256466 6.68256466,1.5142809e-15 14.9259259,0 L16.0740741,0 Z" id="Combined-Shape" fill="#FFBB0D"></path>
            </g>
        </g>
        <text id="Q" mask="url(#mask-2)" font-family="PingFang-SC-Heavy, PingFang SC" font-size="16" font-weight="600" fill="#FFFFFF">
            <tspan x="918.3" y="123">Q</tspan>
        </text>
    </g>
</svg>