<?xml version="1.0" encoding="UTF-8"?>
<svg width="100px" height="100px" viewBox="0 0 100 100" version="1.1" xmlns="http://www.w3.org/2000/svg" xmlns:xlink="http://www.w3.org/1999/xlink">
    <title>缺省图/搜索无结果</title>
    <g id="缺省图/搜索无结果" stroke="none" stroke-width="1" fill="none" fill-rule="evenodd">
        <g id="编组-2" transform="translate(18.000000, 17.000000)">
            <g id="缺省图/组件/文档" transform="translate(3.250000, 0.000000)">
                <g id="编组" opacity="0.4">
                    <path d="M10.0089719,60 C7.11198524,60 4.76351351,57.6515283 4.76351351,54.7545416 L4.76351351,0 L47.8547297,0 C49.9257975,-3.80448985e-16 51.6047297,1.67893219 51.6047297,3.75 L51.6045135,55.764 L55.5743243,55.7647059 L55.5743243,60 L10.0089719,60 Z" id="Combined-Shape" fill="#D6DDF1"></path>
                    <path d="M51.6047297,53.6842105 L58.75,53.6842105 L58.75,56.4273649 C58.75,58.4004768 57.1504768,60 55.1773649,60 C53.204253,60 51.6047297,58.4004768 51.6047297,56.4273649 L51.6047297,53.6842105 L51.6047297,53.6842105 Z" id="Rectangle" fill="#A5ACC1"></path>
                    <path d="M47.4370123,0.00485809628 C45.3367086,0.108093176 43.6655405,1.84368278 43.6655405,3.96959459 L43.6655405,3.96959459 L43.6655405,6.31578947 L0,6.31578947 L0,4.5 C-3.04359188e-16,2.01471863 2.01471863,1.3447172e-15 4.5,0 L47.6351351,0 Z" id="形状结合" fill="#A5ACC1"></path>
                </g>
                <path d="M47.6743859,0 C49.8156514,0 51.5563748,1.71649521 51.5980091,3.84974979 L51.5987719,3.92797927 L51.5987719,55.6765976 C51.5987719,57.6565718 53.2023897,59.261658 55.1805527,59.261658 C57.1330252,59.261658 58.7206179,57.6979916 58.7615248,55.7535471 L58.7623335,55.6765976 L58.7623335,53.7046632 L59.5,53.7046632 L59.5,55.6765976 C59.5,58.0643468 57.5661176,60 55.1805527,60 C52.8220965,60 50.9051155,58.108089 50.8618523,55.7578208 L50.8611053,55.6765976 L50.8611053,3.92797927 C50.8611053,2.16639123 49.4343625,0.738341969 47.6743859,0.738341969 C45.9399163,0.738341969 44.5290914,2.12529845 44.4885622,3.85160199 L44.4876665,3.92797927 L44.4876665,6.29533679 L43.75,6.29533679 L43.75,3.92797927 C43.75,1.75861622 45.5070074,0 47.6743859,0 Z" id="路径-5" fill="#979797" fill-rule="nonzero"></path>
                <polygon id="矩形" fill="#8E929C" fill-rule="nonzero" points="10.75 20 44.75 20 44.75 21 10.75 21"></polygon>
                <rect id="矩形" fill="#8E929C" fill-rule="nonzero" x="10.75" y="27" width="15" height="1"></rect>
            </g>
            <g id="编组" transform="translate(0.000000, 42.750000)">
                <g id="编组" transform="translate(0.500000, 3.500000)">
                    <path d="M7.75,0 L13.75,0 C18.0302068,-7.86261236e-16 21.5,3.46979319 21.5,7.75 C21.5,12.0302068 18.0302068,15.5 13.75,15.5 L7.75,15.5 C3.46979319,15.5 5.24174157e-16,12.0302068 0,7.75 C-1.41235258e-15,3.46979319 3.46979319,7.86261236e-16 7.75,0 Z" id="Rectangle" fill="#6397FF"></path>
                    <path d="M11.25,3.75 L11.25,7.249 L14.75,7.25 L14.75,8.25 L11.25,8.25 L11.25,11.75 L10.25,11.75 L10.25,8.25 L6.75,8.25 L6.75,7.25 L10.25,7.25 L10.25,3.75 L11.25,3.75 Z" id="Combined-Shape" fill="#FFFFFF"></path>
                </g>
            </g>
        </g>
    </g>
</svg>