<?xml version="1.0" encoding="UTF-8"?>
<svg width="30px" height="30px" viewBox="0 0 30 30" version="1.1" xmlns="http://www.w3.org/2000/svg" xmlns:xlink="http://www.w3.org/1999/xlink">
    <title>03 控件/顶部通用/logo备份</title>
    <defs>
        <linearGradient x1="73.6682784%" y1="6.60383233%" x2="26.2644885%" y2="88.7981061%" id="linearGradient-1">
            <stop stop-color="#14DBF9" offset="0%"></stop>
            <stop stop-color="#4080F9" offset="100%"></stop>
        </linearGradient>
    </defs>
    <g id="03-控件/顶部通用/logo备份" stroke="none" stroke-width="1" fill="none" fill-rule="evenodd">
        <g id="编组-2" transform="translate(2.000000, 6.000000)">
            <g id="编组备份">
                <g id="编组" transform="translate(2.664869, 19.394359)"></g>
                <path d="M22.8847177,0.655241935 C24.7194565,0.655241935 25.8034274,1.77842312 25.8034274,3.64213059 L25.8034274,16.9586759 C25.8034274,18.8517952 24.7194565,19.9455645 22.8847177,19.9455645 L10.7731821,19.9470956 C10.673681,19.9932866 10.5782884,20.0367132 10.4870043,20.0773754 C10.0072325,20.2910885 9.53703716,20.5409939 9.07641836,20.8270916 L5.36693153,23.9029982 C5.01036263,24.1986651 4.48162101,24.1492943 4.18595407,23.7927254 C4.06116518,23.6422323 3.9928695,23.4528736 3.9928695,23.2573731 L3.9928695,21.7792248 C3.87049598,21.3670241 3.69768459,20.9526297 3.47443533,20.5360417 C3.34955847,20.3030187 3.12110204,20.081268 2.78906604,19.8707897 C1.43789015,19.5957532 0.642137097,18.5649468 0.642137097,16.9586759 L0.642137097,3.64213059 C0.642137097,1.77842312 1.74747913,0.655241935 3.56084677,0.655241935 L22.8847177,0.655241935 Z" id="形状结合" fill="url(#linearGradient-1)"></path>
            </g>
            <path d="M19.4950184,7.00627275 L20.3053563,7.81333244 C20.4899687,7.99719792 20.4905741,8.2959082 20.3067086,8.48052053 C20.306273,8.48095795 20.3058365,8.48139452 20.3053991,8.48183022 L18.5670474,10.2117688 L20.3122766,11.9507686 C20.3124953,11.9509865 20.3127138,11.9512046 20.312932,11.9514228 C20.4974516,12.1366907 20.4968462,12.4354009 20.3122338,12.6192664 L20.3122338,12.6192664 L19.5018959,13.4263261 C19.3177958,13.6096814 19.020094,13.6096623 18.8360173,13.4262835 L18.8360173,13.4262835 L16.8352339,11.4344447 C16.8034181,11.4152381 16.77338,11.391939 16.7458773,11.3645475 L16.1033319,10.7246015 C15.8780471,10.5002282 15.8354398,10.1618398 15.9758848,9.89434514 C16.0091806,9.82703379 16.0540112,9.76396813 16.1102094,9.70799731 L16.1102094,9.70799731 L16.5862745,9.23385809 C16.6021452,9.2180516 16.6185787,9.20315362 16.6355104,9.18916416 L18.8291398,7.00631536 C19.0132164,6.82293651 19.3109183,6.82291746 19.4950184,7.00627275 Z" id="形状结合备份-22" fill="#FFFFFF"></path>
            <rect id="矩形备份-22" fill="#FFFFFF" x="7.35181452" y="7.36491935" width="2.51612903" height="5.87096774" rx="0.353830645"></rect>
        </g>
    </g>
</svg>