<?xml version="1.0" encoding="UTF-8"?>
<svg width="200px" height="180px" viewBox="0 0 200 180" version="1.1" xmlns="http://www.w3.org/2000/svg" xmlns:xlink="http://www.w3.org/1999/xlink">
    <title>插图pc/空页面</title>
    <defs>
        <linearGradient x1="0%" y1="27.1193772%" x2="100%" y2="72.8806228%" id="linearGradient-1">
            <stop stop-color="#E1E6F0" offset="0%"></stop>
            <stop stop-color="#D2D9E7" offset="100%"></stop>
        </linearGradient>
        <linearGradient x1="32.3852539%" y1="100%" x2="32.3852539%" y2="0%" id="linearGradient-2">
            <stop stop-color="#E2E8F2" offset="0%"></stop>
            <stop stop-color="#CAD6E3" offset="100%"></stop>
        </linearGradient>
        <linearGradient x1="32.3852539%" y1="100%" x2="32.3852539%" y2="0%" id="linearGradient-3">
            <stop stop-color="#E2E8F2" offset="0%"></stop>
            <stop stop-color="#CAD6E3" offset="100%"></stop>
        </linearGradient>
        <linearGradient x1="32.3852539%" y1="100%" x2="32.3852539%" y2="0%" id="linearGradient-4">
            <stop stop-color="#E2E8F2" offset="0%"></stop>
            <stop stop-color="#CAD6E3" offset="100%"></stop>
        </linearGradient>
        <linearGradient x1="32.3852539%" y1="100%" x2="32.3852539%" y2="0%" id="linearGradient-5">
            <stop stop-color="#E2E8F2" offset="0%"></stop>
            <stop stop-color="#CAD6E3" offset="100%"></stop>
        </linearGradient>
    </defs>
    <g id="插图pc/空页面" stroke="none" stroke-width="1" fill="none" fill-rule="evenodd">
        <g id="编组-3" transform="translate(9.000000, 24.000000)">
            <g id="缺省图/元素/scene_35_用户登录失败" transform="translate(14.500000, 0.000000)">
                <path d="M128,26 C130.209139,26 132,27.790861 132,30 L132,102.5 C132,104.709139 130.209139,106.5 128,106.5 L17,106.5 C14.790861,106.5 13,104.709139 13,102.5 L13,30 C13,27.790861 14.790861,26 17,26 L128,26 Z M66,44.5 L29.5,44.5 C28.9477153,44.5 28.5,44.9477153 28.5,45.5 L28.5,45.5 L28.5,86.5 C28.5,87.0522847 28.9477153,87.5 29.5,87.5 L29.5,87.5 L66,87.5 C66.5522847,87.5 67,87.0522847 67,86.5 L67,86.5 L67,45.5 C67,44.9477153 66.5522847,44.5 66,44.5 L66,44.5 Z" id="Combined-Shape" fill="url(#linearGradient-1)"></path>
                <ellipse id="shadow_ic" fill="#4C649A" opacity="0.1" cx="72.5" cy="125.5" rx="35" ry="1.5"></ellipse>
                <path d="M112,78.5 C113.380712,78.5 114.5,79.6192881 114.5,81 C114.5,82.3807119 113.380712,83.5 112,83.5 L82.5,83.5 C81.1192881,83.5 80,82.3807119 80,81 C80,79.6192881 81.1192881,78.5 82.5,78.5 L112,78.5 Z M112,63.5 C113.380712,63.5 114.5,64.6192881 114.5,66 C114.5,67.3807119 113.380712,68.5 112,68.5 L82.5,68.5 C81.1192881,68.5 80,67.3807119 80,66 C80,64.6192881 81.1192881,63.5 82.5,63.5 L112,63.5 Z M112,48.5 C113.380712,48.5 114.5,49.6192881 114.5,51 C114.5,52.3807119 113.380712,53.5 112,53.5 L82.5,53.5 C81.1192881,53.5 80,52.3807119 80,51 C80,49.6192881 81.1192881,48.5 82.5,48.5 L112,48.5 Z" id="Combined-Shape" fill="#FFFFFF"></path>
            </g>
            <g id="trees" transform="translate(0.000000, 87.935511)" opacity="0.503882999">
                <g id="tree" transform="translate(171.000000, 0.000000)">
                    <g>
                        <rect id="矩形复制-10" fill="url(#linearGradient-2)" x="7.8" y="24.5630631" width="2.4" height="20.9684685"></rect>
                        <path d="M8.66311098,-2.13162821e-14 C10.0327959,-2.15678891e-14 11.2345183,0.913018519 11.6016539,2.23258219 L17.6787564,24.0749881 C18.9946782,28.8046926 16.2272606,33.7056411 11.4975561,35.021563 C10.7217277,35.2374178 9.92016555,35.3468468 9.11486879,35.3468468 C4.08271709,35.3468468 0.00335212747,31.2674819 0.00335212747,26.2353302 C0.00335212747,25.4827182 0.096599469,24.7330056 0.280963314,24.0033244 L5.77804969,2.24677641 C6.11186047,0.925609217 7.30042525,-2.10659608e-14 8.66311098,-2.13162821e-14 Z" id="矩形复制-11" fill="url(#linearGradient-3)"></path>
                    </g>
                </g>
                <g id="tree" transform="translate(151.000000, 9.500000)">
                    <g>
                        <rect id="矩形复制-10" fill="url(#linearGradient-4)" x="4.63783784" y="14.6050645" width="1.42702703" height="12.467738"></rect>
                        <path d="M5.15103896,-2.13162821e-14 C5.96544622,-2.14658863e-14 6.67998387,0.542875876 6.89828069,1.3274813 L10.511693,14.3148578 C11.294133,17.1271145 9.64864142,20.041192 6.83638468,20.823632 C6.37508136,20.9519781 5.89847682,21.0170441 5.41965172,21.0170441 C2.42756151,21.0170441 0.00199315687,18.5914757 0.00199315687,15.5993855 C0.00199315687,15.1518865 0.0574375221,14.7061114 0.167059268,14.2722469 L3.43559711,1.33592111 C3.6340792,0.550362237 4.34079339,-2.11674424e-14 5.15103896,-2.13162821e-14 Z" id="矩形复制-11" fill="url(#linearGradient-5)"></path>
                    </g>
                </g>
                <g id="tree" transform="translate(0.000000, 12.500000)">
                    <g>
                        <rect id="矩形复制-10" fill="url(#linearGradient-4)" x="4.63783784" y="14.6050645" width="1.42702703" height="12.467738"></rect>
                        <path d="M5.15103896,-2.13162821e-14 C5.96544622,-2.14658863e-14 6.67998387,0.542875876 6.89828069,1.3274813 L10.511693,14.3148578 C11.294133,17.1271145 9.64864142,20.041192 6.83638468,20.823632 C6.37508136,20.9519781 5.89847682,21.0170441 5.41965172,21.0170441 C2.42756151,21.0170441 0.00199315687,18.5914757 0.00199315687,15.5993855 C0.00199315687,15.1518865 0.0574375221,14.7061114 0.167059268,14.2722469 L3.43559711,1.33592111 C3.6340792,0.550362237 4.34079339,-2.11674424e-14 5.15103896,-2.13162821e-14 Z" id="矩形复制-11" fill="url(#linearGradient-5)"></path>
                    </g>
                </g>
            </g>
            <g id="缺省图/元素/male_10" transform="translate(46.000000, 55.375487)">
                <g id="male_10" transform="translate(0.000000, 4.000000)">
                    <g id="Group-Copy" transform="translate(8.318225, 27.469941)">
                        <path d="M4.13225434,36.1200562 L4.13225434,38.3100586 L0.0857055806,38.3100586 C-0.0285685269,37.8442179 -0.0285685269,37.5351969 0.0857055806,37.3829956 C0.199979688,37.2307943 0.874404481,36.8098145 2.10897996,36.1200562 L2.10897996,36.1200562 L4.13225434,36.1200562 Z M12.2050493,36.1200562 C13.4396248,36.8098145 14.1140496,37.2307943 14.2283237,37.3829956 C14.3425978,37.5351969 14.3425978,37.8442179 14.2283237,38.3100586 L10.1817749,38.3100586 L10.1817749,36.1200562 L12.2050493,36.1200562 Z" id="形状结合" fill="#1C1D1F"></path>
                        <path d="M1.84144289,0 C1.84144289,8.87059955 1.84144289,14.7864366 1.84144289,17.7475112 C1.84144289,20.7085857 1.85733101,26.8327674 1.88910727,36.1200562 L4.56818255,36.4559326 C5.65727897,26.8307279 6.28516051,21.4572892 6.45182718,20.3356165 C6.61849384,19.2139439 7.06323229,15.201539 7.78604252,8.29840176 C8.49732271,15.6565449 8.8529628,19.6689499 8.8529628,20.3356165 C8.8529628,21.0022832 9.2024161,26.3757219 9.90132271,36.4559326 L12.7479021,36.4559326 C13.1734638,25.1536247 13.3862446,19.1783333 13.3862446,18.5300586 C13.3862446,17.8817839 13.5542534,12.0632868 13.890271,1.07456756 L1.84144289,0 Z" id="路径-72-copy" fill="#526284"></path>
                    </g>
                    <path d="M20.7573784,17.2956913 C23.0875858,19.5177387 24.773029,20.6287624 25.8137079,20.6287624 C26.8543868,20.6287624 28.0914516,17.8458416 29.5249023,12.28 C30.9164533,12.3635172 31.7552878,12.219322 32.0414057,11.8474144 C32.4705825,11.2895531 31.8510742,10.5002148 30.6879883,10.5002148 C29.9125977,10.5002148 29.132077,10.8434766 28.3464264,11.53 C26.3760549,15.5260937 25.3908691,17.5241406 25.3908691,17.5241406 C25.3908691,17.5241406 24.4910429,16.5795176 22.6913905,14.6902716 L20.7573784,17.2956913 Z" id="路径-73" fill="#FBD1C9"></path>
                    <path d="M0,17.2954765 C2.3302074,19.5175238 4.01565055,20.6285475 5.05632947,20.6285475 C6.09700838,20.6285475 7.33407321,17.8456267 8.76752394,12.2797852 C10.1590749,12.3633023 10.9979094,12.2191071 11.2840273,11.8471996 C11.7132041,11.2893383 11.0936958,10.5 9.93060988,10.5 C9.15521926,10.5 8.37469863,10.8432617 7.58904802,11.5297852 C5.6186765,15.5258789 4.63349074,17.5239258 4.63349074,17.5239258 C4.63349074,17.5239258 3.73366452,16.5793028 1.93401207,14.6900567 L0,17.2954765 Z" id="路径-73-copy" fill="#FBD1C9" transform="translate(5.710221, 15.564274) scale(-1, 1) translate(-5.710221, -15.564274) "></path>
                    <path d="M11.9108887,11.8471068 C12.6091931,11.5540739 14.2788086,11.28 16.6740723,11.28 C19.0693359,11.28 19.2746004,11.001632 21.2467684,12.3326867 C21.6525301,12.8136437 22.7972426,14.284902 24.6809059,16.7464616 L21.3881104,18.9642325 L22.7374952,30.5 C21.1913313,31.1266506 18.9991291,31.4399759 16.1608887,31.4399759 C13.3226483,31.4399759 11.0035037,30.8348806 9.20345496,29.6246899 L11.0163976,18.9642325 C8.68855173,17.2814775 7.53724273,16.3340616 7.5624706,16.1219848 C9.03659169,14.2430297 11.2125842,12.1401397 11.9108887,11.8471068 Z" id="矩形" fill="var(--blueColor)"></path>
                    <g id="head" transform="translate(12.000000, 0.000000)">
                        <path d="M4.2458387,1.77635684e-15 C1.6539578,1.77635684e-15 -1.15463195e-14,1.97442376 -1.15463195e-14,4.52703018 C-1.15463195e-14,7.07963661 1.17688586,8.70391109 4.2458387,8.70391109 C7.31479154,8.70391109 8.4916774,6.92639708 8.4916774,4.52703018 C8.4916774,2.12766328 6.8377196,1.77635684e-15 4.2458387,1.77635684e-15 Z" id="Path" fill="#1C1D1F"></path>
                        <path d="M1.86783149,3.97989573 C3.07026412,4.16575166 5.1495916,4.16575166 6.66849668,3.97989573 C7.76632176,3.84556391 7.59225205,5.84266108 7.59225205,6.25 C7.69783811,5.99485737 8.11617304,6.10741187 8.11617304,6.82963452 C8.11617304,7.55185718 7.59895214,8.00851637 7.36204382,7.87808323 C7.01917484,8.77700258 6.36506076,9.55065039 5.5641742,9.9598491 L5.5641742,11 C5.5641742,11.8284271 4.89260133,12.5 4.0641742,12.5 C3.23574708,12.5 2.5641742,11.8284271 2.5641742,11 L2.5641742,9.84554596 C1.80368541,9.40306945 1.27926101,8.72481424 1.02954902,7.79154261 C0.768726081,7.92402411 0.239947738,7.50025694 0.239947738,6.82963452 C0.239947738,6.1590121 0.63949789,6.0831303 0.83674727,6.25 C0.823405623,5.79084113 0.665398869,3.79403981 1.86783149,3.97989573 Z" id="Path-Copy-6" fill="#FBD1C9"></path>
                    </g>
                </g>
            </g>
        </g>
    </g>
</svg>