<?xml version="1.0" encoding="UTF-8"?>
<svg width="28px" height="28px" viewBox="0 0 28 28" version="1.1" xmlns="http://www.w3.org/2000/svg" xmlns:xlink="http://www.w3.org/1999/xlink">
    <!-- Generator: Sketch 64 (93537) - https://sketch.com -->
    <title>06 配图/头像/默认头像</title>
    <desc>Created with Sketch.</desc>
    <defs>
        <circle id="path-1" cx="14" cy="14" r="14"></circle>
        <rect id="path-3" x="0" y="0" width="28" height="28"></rect>
    </defs>
    <g id="06-配图/头像/默认头像" stroke="none" stroke-width="1" fill="none" fill-rule="evenodd">
        <g id="Group-10">
            <mask id="mask-2" fill="white">
                <use xlink:href="#path-1"></use>
            </mask>
            <use id="Oval-4" fill="#5381C2" xlink:href="#path-1"></use>
            <g id="06-配图/头像/正方形大头像" mask="url(#mask-2)">
                <g id="Group-10">
                    <mask id="mask-4" fill="white">
                        <use xlink:href="#path-3"></use>
                    </mask>
                    <use id="Rectangle-6-Copy" fill="#C0C6CF" xlink:href="#path-3"></use>
                </g>
                <g id="Group" transform="translate(8.050000, 5.950000)" fill="#FFFFFF">
                    <path d="M5.95,9.8 C8.07629629,9.8 9.8,8.07629629 9.8,5.95 C9.8,3.82370371 8.07629629,2.1 5.95,2.1 C3.82370371,2.1 2.1,3.82370371 2.1,5.95 C2.1,8.07629629 3.82370371,9.8 5.95,9.8 Z M5.95,11.9 C2.66390574,11.9 0,9.23609426 0,5.95 C0,2.66390574 2.66390574,0 5.95,0 C9.23609426,0 11.9,2.66390574 11.9,5.95 C11.9,9.23609426 9.23609426,11.9 5.95,11.9 Z" id="Oval-2-Copy" fill-rule="nonzero"></path>
                    <rect id="Rectangle-6" x="0" y="14" width="11.9" height="2.1" rx="0.75"></rect>
                </g>
            </g>
        </g>
    </g>
</svg>