<?xml version="1.0" encoding="UTF-8"?>
<svg width="100px" height="100px" viewBox="0 0 100 100" version="1.1" xmlns="http://www.w3.org/2000/svg" xmlns:xlink="http://www.w3.org/1999/xlink">
    <title>稻壳</title>
    <defs>
        <path d="M29.3827847,0.938460445 L48.6172153,12.4360784 C50.7104898,13.687359 52,15.9998209 52,18.5023821 L52,41.4976179 C52,44.0001791 50.7104898,46.312641 48.6172153,47.5639216 L29.3827847,59.0615396 C27.2895102,60.3128201 24.7104898,60.3128201 22.6172153,59.0615396 L3.38278468,47.5639216 C1.28951023,46.312641 0,44.0001791 0,41.4976179 L0,18.5023821 C0,15.9998209 1.28951023,13.687359 3.38278468,12.4360784 L22.6172153,0.938460445 C24.7104898,-0.312820148 27.2895102,-0.312820148 29.3827847,0.938460445 Z" id="path-1"></path>
        <path d="M5.27944516,11.1314843 C5.26926909,10.4779849 4.40323158,10.2291586 4.04224873,10.7775275 C2.39104673,13.2927339 -0.383341324,18.2557298 0.0879716051,23.6665142 C0.483767349,28.21301 3.13879689,32.8246852 6.15673061,34.5278834 C6.4853147,34.7133228 7.05543867,34.849086 7.2798479,34.4216964 C7.85720624,33.3207323 8.36586128,31.6676728 8.86356575,29.3808628 C9.1358604,28.1297467 9.20821956,26.5645848 8.97860916,25.4023768 C8.85338997,24.7685607 8.50461873,24.0676636 8.34319357,23.7747029 C7.43789283,22.1317275 5.38994102,18.2469905 5.27944516,11.1314843 Z M15.98992,12.5798877 C16.6418839,6.4680386 14.3077577,2.13152127 13.2017002,0.462428201 C12.9422939,0.0708032424 12.3656586,0.0629915744 12.0935208,0.446284087 C10.9105432,2.11277327 8.21781031,6.42741793 7.73400961,11.7794521 C7.25126987,17.1221123 9.43951318,22.0111749 10.4516752,23.9448231 C10.6771305,24.3770688 11.2845338,24.4317505 11.580013,24.0422086 C12.7926976,22.4428998 15.3644803,18.4386387 15.98992,12.5798877 Z M14.9220858,23.7047422 C10.3112481,27.9956238 9.51160621,32.6534676 9.21696218,34.6285019 C9.14763417,35.0921965 9.56570306,35.47397 10.0226377,35.3699932 C12.0468054,34.9083991 16.7104332,33.5473556 20.6904911,29.1934577 C24.5613048,24.9587656 25.9536423,19.9862582 26.401123,17.8316275 C26.5056403,17.3269723 26.0187686,16.9063388 25.5324221,17.077533 C23.613822,17.7539074 19.3438471,19.5908312 14.9220858,23.7047422 Z" id="path-2"></path>
        <linearGradient x1="46.9515473%" y1="95.9492236%" x2="55.4321232%" y2="25.2179306%" id="linearGradient-4">
            <stop stop-color="#FFC7C0" offset="0%"></stop>
            <stop stop-color="#FFFFFF" offset="100%"></stop>
        </linearGradient>
        <linearGradient x1="-68.5800851%" y1="78.7516963%" x2="147.706268%" y2="43.1385809%" id="linearGradient-5">
            <stop stop-color="#FFC7C0" offset="0%"></stop>
            <stop stop-color="#FFFFFF" offset="100%"></stop>
        </linearGradient>
        <linearGradient x1="47.7102733%" y1="95.9492236%" x2="54.0801281%" y2="25.2179306%" id="linearGradient-6">
            <stop stop-color="#FFC7C0" offset="0%"></stop>
            <stop stop-color="#FFFFFF" offset="100%"></stop>
        </linearGradient>
    </defs>
    <g id="稻壳" stroke="none" stroke-width="1" fill="none" fill-rule="evenodd">
        <g id="DOCER-MEMBER" transform="translate(24.000000, 20.000000)">
            <g id="路径" fill-rule="nonzero" fill="#FF4E37">
                <use xlink:href="#path-1"></use>
                <use xlink:href="#path-1"></use>
            </g>
            <g id="图形" transform="translate(14.351562, 12.187500)">
                <mask id="mask-3" fill="white">
                    <use xlink:href="#path-2"></use>
                </mask>
                <use id="Fill-3备份-3" fill="#FFFFFF" xlink:href="#path-2"></use>
                <path d="M12.3385515,-0.9375 C15.1189698,4.80204984 15.6402982,9.78195338 13.9025368,14.0022106 C11.2958946,20.3325965 10.2532377,21.5986736 11.0352304,24.3840434 C11.5565588,26.2409566 12.946768,25.3125 15.2058578,21.5986736 L17.8125,10.71041 C16.7698431,6.15253215 16.2485147,3.45156752 16.2485147,2.60751608 C16.2485147,1.76346463 14.9451936,0.581792605 12.3385515,-0.9375 Z" id="路径-5" fill="url(#linearGradient-4)" mask="url(#mask-3)"></path>
                <path d="M26.1824817,16.640625 C24.6544807,22.755154 21.8868752,26.9128907 17.8796652,29.1138352 C11.8688501,32.4152518 10.2692069,32.7591928 9.09512505,35.3822828 C8.31240381,37.1310095 9.96245174,37.258397 14.0452689,35.7644452 L22.952942,28.947176 C25.0548397,24.7986389 26.3740161,22.3988284 26.9104713,21.7477446 C27.4469265,21.0966608 27.2042633,19.3942876 26.1824817,16.640625 Z" id="路径-5" fill="url(#linearGradient-5)" mask="url(#mask-3)"></path>
                <path d="M5.23854962,9.84375 C3.8740458,13.2091346 3.44763836,16.2379808 3.95932729,18.9302885 C4.72686069,22.96875 6.77361641,24.9879808 7.28530534,28.2692308 C7.79699427,31.5504808 6.77361641,34.3269231 6.00608302,34.8317308 C5.23854962,35.3365385 5.23854962,34.3269231 5.23854962,34.5793269 C5.23854962,34.7475962 5.49439408,35.2524038 6.00608302,36.09375 C6.51777195,35.7572115 6.77361641,35.5889423 6.77361641,35.5889423 C6.77361641,35.5889423 7.02946088,35.4206731 7.54114981,35.0841346 L8.30868321,33.8221154 C9.33206107,30.625 9.84375,28.9423077 9.84375,28.7740385 C9.84375,28.5216346 9.84375,25.7451923 9.58790553,24.9879808 C9.41734256,24.4831731 8.82037214,22.8846154 7.79699427,20.1923077 L6.51777195,13.125 L5.23854962,9.84375 Z" id="路径-6" fill="url(#linearGradient-6)" mask="url(#mask-3)"></path>
            </g>
        </g>
    </g>
</svg>