<?xml version="1.0" encoding="UTF-8"?>
<svg width="100px" height="100px" viewBox="0 0 100 100" version="1.1" xmlns="http://www.w3.org/2000/svg" xmlns:xlink="http://www.w3.org/1999/xlink">
    <title>logo/热门问答</title>
    <g id="logo/热门问答" stroke="none" stroke-width="1" fill="none" fill-rule="evenodd">
        <g id="热门" transform="translate(26.000000, 20.000000)" fill-rule="nonzero">
            <path d="M30.9507044,10.9556504 C30.1874992,8.60427577 28.8808771,6.42127842 27.1916101,4.41935258 L27.191611,4.41935368 C26.2705688,3.32998666 25.261106,2.31787842 24.1734304,1.39327211 L24.1734298,1.39327155 C23.7188536,0.99974602 23.2450506,0.628795349 22.7537462,0.281773578 C21.5823971,-0.518198385 20.0252757,0.500688062 20.3011938,1.88898272 C20.3032786,1.90271477 20.3128207,1.96897992 20.32549,2.08266855 C20.4111281,2.88471629 20.3677478,3.91414129 20.0919098,5.08032796 C19.6859308,6.79284279 18.8412572,8.48316279 17.4448274,10.0841446 C17.05681,10.5293186 16.6276574,10.9640339 16.156167,11.3871728 C15.6635075,11.8313089 15.1064591,12.2913327 14.4383539,12.8122725 C13.84001,13.2796414 11.079786,15.3405672 10.3282077,15.927852 C3.3574453,21.3663839 0,26.7438402 0,35.6315127 C0,49.0914801 10.9571824,60 24.4737243,60 C37.9902662,60 48.9473684,49.0903624 48.9473684,35.6326304 C48.9473684,29.8762653 46.4789393,23.9104065 42.3889196,18.0308521 L42.3889208,18.0308538 C41.0273798,16.0774532 39.5452318,14.2101814 37.9510567,12.4398322 L37.9510594,12.4398352 C37.4727018,11.9072247 36.9827879,11.3850139 36.4816608,10.8735827 L36.4816617,10.8735836 C36.2917232,10.6785605 36.0985949,10.4866423 35.9023547,10.2979064 C34.8822353,9.33163286 33.1982605,10.0684533 33.2225567,11.4693623 C33.2225567,11.5167858 33.2204718,11.6209738 33.2109298,11.768274 L33.2109297,11.7682746 C33.1924301,12.037731 33.1606652,12.3061208 33.1157496,12.5724779 L33.1157496,12.5724781 C32.9842967,13.3905412 32.7272366,14.1836072 32.3535868,14.9238528 C32.1421377,15.3342975 31.8990154,15.7100927 31.6167626,16.0500408 C31.7298241,14.4544081 31.5427514,12.7787782 30.9507422,10.9557683 L30.9507044,10.9556504 Z" id="路径" fill="#EB5451"></path>
            <path d="M11.7903877,28.2356694 C11.7903877,27.7157176 12.215659,27.2952593 12.7336712,27.2952593 L13.1655516,27.2952593 C13.6863653,27.2952593 14.1087633,27.7185911 14.1087633,28.2442179 L14.1087633,34.2277577 L16.9727362,34.2277577 L16.9727362,28.2442179 C16.9727362,27.7205307 17.3980076,27.2952593 17.9159479,27.2952593 L18.3478283,27.2952593 C18.8687139,27.2952593 19.2911118,27.7280735 19.2911118,28.2356694 L19.2911118,42.5382216 L19.2911118,42.5382243 C19.2895268,43.058023 18.8676988,43.4786344 18.3479001,43.4786344 L17.9160198,43.4786344 L17.9160198,43.4786344 C17.3963159,43.47648 16.9753726,43.0559864 16.9727362,42.5362847 L16.9727362,36.2733732 L14.1088351,36.2733732 L14.1088351,42.5362847 C14.1088351,43.0571703 13.6835637,43.4786344 13.1655516,43.4786344 L12.7336712,43.4786344 C12.2128574,43.4786344 11.7903877,43.0458202 11.7903877,42.5382243 L11.7903877,28.2356721 L11.7903877,28.2356694 Z M21.3367247,31.1137941 C21.3367247,30.4622381 21.4504417,29.8863976 21.677732,29.3863446 C21.9050223,28.8862915 22.2042927,28.473376 22.5755432,28.147598 L22.5755431,28.1475981 C22.9418978,27.8246928 23.3660594,27.5740499 23.8256398,27.4089045 C24.2878351,27.2422441 24.7537659,27.1589139 25.2235758,27.1589139 C25.6933858,27.1589139 26.1592447,27.2422441 26.6213682,27.4089045 C27.0835635,27.5755649 27.5002863,27.8218201 27.8715368,28.1475981 C28.2427872,28.4733761 28.5420576,28.8862916 28.7693479,29.3863447 C28.9966382,29.8863977 29.1102834,30.4622382 29.1102834,31.1137942 L29.1102834,39.6600969 C29.1102834,40.3267386 28.9966382,40.9064582 28.7693479,41.3988966 C28.5420576,41.891335 28.2427872,42.3004432 27.8715368,42.6262931 L27.8715368,42.6262931 C27.5051604,42.9492063 27.0809702,43.1998499 26.6213682,43.3649866 C26.1592447,43.531647 25.6932421,43.6149772 25.223504,43.6149772 C24.7537659,43.6149772 24.2878351,43.531647 23.8256398,43.3649866 L23.8256399,43.3649867 C23.366063,43.1998413 22.9419015,42.9491984 22.5755431,42.6262931 L22.575543,42.626293 C22.1929719,42.285137 21.8869884,41.8668244 21.6777319,41.3988966 C21.4504415,40.9063863 21.3367247,40.3268104 21.3367247,39.6600969 L21.3367247,31.1137223 L21.3367247,31.1137941 Z M23.6551722,39.6600969 C23.6551722,40.220708 23.8104824,40.6336235 24.1211748,40.8988435 C24.4317953,41.1639915 24.7993103,41.2966015 25.2235041,41.2966015 C25.6478416,41.2966015 26.0152847,41.1639915 26.3259052,40.8988435 C26.6365258,40.6336235 26.791836,40.220708 26.791836,39.6600969 L26.791836,31.1137223 C26.791836,30.5531111 26.6365258,30.1401956 26.3259052,29.8750475 L26.3259053,29.8750475 C26.0198184,29.6114705 25.6273697,29.4698709 25.2235041,29.4772895 C24.7992385,29.4772895 24.4317954,29.6098276 24.1211748,29.8750475 C23.8104825,30.1401956 23.6551722,30.553183 23.6551722,31.1137941 L23.6551722,39.6600969 L23.6551722,39.6600969 Z M32.6788277,29.4772894 L30.9342811,29.4772894 L30.9342812,29.4772894 C30.4166957,29.4767351 29.9972617,29.0572664 29.9967445,28.539681 L29.9967445,28.2327959 C29.9967445,27.7147838 30.4210102,27.2952593 30.9390224,27.2952593 L36.7369369,27.2952593 C37.2578225,27.2952593 37.6792866,27.7157176 37.6792866,28.2327959 L37.6792866,28.539681 L37.6792866,28.539681 C37.6792866,29.0575078 37.2595049,29.4772894 36.7416781,29.4772894 C36.7416781,29.4772894 36.7416781,29.4772894 36.7416781,29.4772894 L34.9972034,29.4772894 L34.9972034,42.5382216 L34.9972033,42.5382243 C34.9956183,43.058023 34.5737904,43.4785668 34.0539916,43.4785668 L33.6220395,43.4785668 L33.6220394,43.4785668 C33.1026674,43.4801098 32.6803794,43.0603304 32.6788349,42.5409612 C32.6788322,42.5400499 32.6788308,42.5391386 32.6788307,42.5382273 L32.6788307,29.4772951 L32.6788277,29.4772894 Z" id="形状" fill="#FFFFFF"></path>
        </g>
    </g>
</svg>