<?xml version="1.0" encoding="UTF-8"?>
<svg width="100px" height="100px" viewBox="0 0 100 100" version="1.1" xmlns="http://www.w3.org/2000/svg" xmlns:xlink="http://www.w3.org/1999/xlink">
    <title>云</title>
    <defs>
        <linearGradient x1="31.728846%" y1="1.25855362%" x2="31.728846%" y2="100%" id="linearGradient-1">
            <stop stop-color="#0169F5" offset="0.0343116554%"></stop>
            <stop stop-color="#7ECFFF" offset="100%"></stop>
        </linearGradient>
        <linearGradient x1="53.4093971%" y1="88.4889264%" x2="99.7147113%" y2="8.19147233%" id="linearGradient-2">
            <stop stop-color="#004DB5" offset="0%"></stop>
            <stop stop-color="#0A63DB" offset="17.8211573%"></stop>
            <stop stop-color="#3DB7FF" offset="100%"></stop>
        </linearGradient>
        <linearGradient x1="31.728846%" y1="1.25855362%" x2="31.728846%" y2="100%" id="linearGradient-3">
            <stop stop-color="#0169F5" offset="0.0343116554%"></stop>
            <stop stop-color="#7ECFFF" offset="100%"></stop>
        </linearGradient>
    </defs>
    <g id="云" stroke="none" stroke-width="1" fill="none" fill-rule="evenodd">
        <g id="云服务" transform="translate(17.000000, 28.000000)">
            <g id="编组-4" transform="translate(0.126769, 0.126769)">
                <path d="M13.3342101,18.8633173 L13.5593892,18.8966081 L13.7532201,18.9288666 C13.9083166,18.9560201 14.0624487,18.9862418 14.2154663,19.0194524 L14.448162,19.0724588 L14.6046474,19.1109436 L14.8229693,19.1685027 L15.0666343,19.2381432 L15.2664721,19.2995824 L15.4791353,19.3693237 L15.647461,19.4277664 L15.7967919,19.4820517 L15.9254742,19.5306961 L16.0180461,19.5667713 L16.2048416,19.6423612 C16.2773303,19.6724281 16.3493876,19.7031734 16.4210697,19.7346156 L16.5371468,19.7862872 L16.7208613,19.8711981 L16.8980715,19.9568128 L17.0662048,20.0414909 L17.2028478,20.1128392 L17.3733919,20.2051465 L17.4960476,20.27382 L17.6752491,20.3776791 L17.8419615,20.4781589 L17.9296291,20.5325278 L18.016797,20.5876545 C18.0704302,20.6219051 18.123669,20.656516 18.1766068,20.6915452 C18.2885998,20.7656519 18.3992369,20.8416245 18.5084795,20.9194223 L18.6630169,21.0313786 L18.8169406,21.1467607 L18.9263343,21.2311884 L19.0908321,21.3620741 L19.2425792,21.4871565 L19.3818803,21.6058004 L19.5463144,21.7507634 L19.6950115,21.8866442 L19.7418488,21.9304225 C19.819919,22.0037953 19.8968349,22.0780795 19.9727256,22.1533951 C20.0366382,22.2168226 20.0998631,22.2810226 20.1623465,22.3459415 L20.2754064,22.4650575 L20.3988888,22.5990427 L20.5269561,22.7425106 L20.6531576,22.8886284 L20.7769484,23.0367951 L20.915541,23.2087307 L21.0342491,23.3614198 L21.1508398,23.5165922 L21.2649223,23.6737633 L21.352533,23.7982854 C21.6539135,24.2325911 21.9266812,24.6882526 22.1681081,25.1625419 L22.26965,25.3669412 L28.1264499,37.3647162 C29.0385598,39.2724003 30.0983526,40.4471981 31.773231,41.7067128 L10.8961582,41.7067128 L10.8961437,41.6987805 C4.66594904,41.4262914 0,36.768538 0,30.4711902 C0,26.0531023 2.44499158,22.2060729 6.05571629,20.2093603 L6.19806919,20.131923 C6.26209528,20.0976668 6.32649015,20.063981 6.39123349,20.0308798 C6.45606953,19.997732 6.52115352,19.9652199 6.58657893,19.9332992 L6.71800415,19.8701909 L6.85028593,19.8086948 L7.03089405,19.7279488 L7.21301964,19.6502088 L7.40718396,19.5713186 L7.55758533,19.512984 L7.70415725,19.4584251 L7.89364376,19.3911889 L8.08171074,19.3280716 L8.25440464,19.2732336 L8.40505127,19.2278003 L8.57144883,19.1801856 L8.75175289,19.1315965 L8.86858628,19.1017616 L9.03112734,19.0623897 L9.2292701,19.0177187 L9.37995156,18.9861666 L9.49005524,18.9644207 L9.65772758,18.9334113 L9.74955221,18.9174998 L9.90492134,18.8922904 L10.0373809,18.8724884 L10.2189903,18.8478489 L10.4030828,18.8258139 L10.5971744,18.8057649 L10.7688066,18.7907388 L10.9541294,18.7773447 C11.0579554,18.7706616 11.1620841,18.765333 11.266563,18.7613723 L11.4919226,18.7549669 L11.7183673,18.7528228 C11.8275603,18.7528228 11.9364045,18.7543163 12.0448805,18.7572839 L12.207316,18.7628386 L12.434038,18.7743185 L12.6453392,18.7889492 L12.7811446,18.8003667 L13.0060127,18.82276 L13.1261755,18.8365198 C13.1957093,18.8448452 13.265056,18.8537795 13.3342101,18.8633173 Z" id="路径" fill="url(#linearGradient-1)"></path>
                <g id="编组-18" transform="translate(5.893264, 0.003435)">
                    <path d="M42.0752444,11.8485714 C50.5605923,11.8485714 57.439326,18.7273051 57.439326,27.2126531 C57.439326,31.4472841 55.7261565,35.2817829 52.9550917,38.0608755 L51.6341821,39.0707467 C47.0446578,39.5368122 44.2763376,39.7698449 43.3292216,39.7698449 L36.0358857,39.7698449 L36.0358857,39.7698449 C34.8669735,39.7698449 34.6855683,39.0310892 33.7858171,40.0497074 L33.7268916,40.1128843 C29.5045043,37.3747577 26.7111627,32.6199153 26.7111627,27.2126531 C26.7111627,18.7273051 33.5898964,11.8485714 42.0752444,11.8485714 Z" id="形状结合" fill="url(#linearGradient-2)"></path>
                    <path d="M18.0677224,0 C25.1809275,0 31.3287356,4.13335545 34.2403511,10.1292705 L34.3274339,10.3116483 L47.1159907,36.5123224 C47.745386,37.8263375 49.0882266,38.7350785 50.643315,38.7350785 C51.8861653,38.7350785 52.9934433,38.1546249 53.7088458,37.2500209 L53.7107591,37.251616 C52.5388383,38.7275458 51.0693645,39.562517 49.3867991,40.4165058 L49.2472164,40.4858209 C47.5279946,41.349954 45.6444487,41.6832002 43.7202737,41.6832002 L33.6400824,41.6832002 C29.7640448,41.5441932 26.4073538,39.7838094 24.7327801,36.5315554 L24.6750406,36.4177026 L18.7159053,24.2212451 C16.3959596,19.4403346 11.4953292,16.1453061 5.82510371,16.1453061 C3.79390683,16.1453061 1.86146645,16.568133 0.110999362,17.3305698 C0.446527399,7.70224442 8.35764713,0 18.0677224,0 Z" id="路径" fill="url(#linearGradient-3)"></path>
                </g>
            </g>
        </g>
    </g>
</svg>