<?xml version="1.0" encoding="UTF-8"?>
<svg width="100px" height="100px" viewBox="0 0 100 100" version="1.1" xmlns="http://www.w3.org/2000/svg" xmlns:xlink="http://www.w3.org/1999/xlink">
    <title>会员</title>
    <defs>
        <linearGradient x1="33.9753739%" y1="8.88085938%" x2="68.4810409%" y2="89.8046875%" id="linearGradient-1">
            <stop stop-color="#FF9E1E" offset="0%"></stop>
            <stop stop-color="#FF9507" offset="100%"></stop>
        </linearGradient>
        <path d="M29.3827847,0.938460445 L48.6172153,12.4360784 C50.7104898,13.687359 52,15.9998209 52,18.5023821 L52,41.4976179 C52,44.0001791 50.7104898,46.312641 48.6172153,47.5639216 L29.3827847,59.0615396 C27.2895102,60.3128201 24.7104898,60.3128201 22.6172153,59.0615396 L3.38278468,47.5639216 C1.28951023,46.312641 0,44.0001791 0,41.4976179 L0,18.5023821 C0,15.9998209 1.28951023,13.687359 3.38278468,12.4360784 L22.6172153,0.938460445 C24.7104898,-0.312820148 27.2895102,-0.312820148 29.3827847,0.938460445 Z" id="path-2"></path>
        <path d="M4.20439918,22.4745067 L0.186356914,9.25802832 C-0.0144486113,8.5975221 0.358212429,7.89929098 1.01871864,7.69848545 C1.32561244,7.60518433 1.65662913,7.63343122 1.94327738,7.77738148 L9.32311216,11.483419 C9.5470925,11.5958984 9.81974289,11.5251682 9.96079904,11.317992 L16.6272795,1.52659972 C17.0158056,0.955952042 17.7933696,0.808313345 18.3640173,1.19683946 C18.4955632,1.28640266 18.6087968,1.40026122 18.6976345,1.53229819 L25.2794197,11.3146188 C25.4199181,11.5234376 25.6937327,11.5952747 25.9186493,11.4823252 L33.2963059,7.77738148 C33.9132391,7.46756732 34.6645162,7.71653644 34.9743304,8.33346958 C35.1182807,8.62011784 35.1465275,8.95113452 35.0532264,9.25802832 L31.0351842,22.4745067 C30.8751146,23.0010208 30.3895403,23.3609161 29.8392319,23.3609161 L5.40035147,23.3609161 C4.85004305,23.3609161 4.36446874,23.0010208 4.20439918,22.4745067 Z" id="path-3"></path>
        <linearGradient x1="86.205367%" y1="40.4855317%" x2="27.695506%" y2="64.9697816%" id="linearGradient-5">
            <stop stop-color="#FFFFFF" offset="0%"></stop>
            <stop stop-color="#FFDFB4" offset="100%"></stop>
        </linearGradient>
        <linearGradient x1="16.0609791%" y1="43.9688582%" x2="97.839894%" y2="61.486455%" id="linearGradient-6">
            <stop stop-color="#FFFFFF" offset="0%"></stop>
            <stop stop-color="#FFDFB4" offset="100%"></stop>
        </linearGradient>
    </defs>
    <g id="会员" stroke="none" stroke-width="1" fill="none" fill-rule="evenodd">
        <g id="WPS-MEMBER" transform="translate(24.000000, 20.000000)">
            <g id="路径" fill-rule="nonzero">
                <use fill="url(#linearGradient-1)" xlink:href="#path-2"></use>
                <use fill="#FF980F" xlink:href="#path-2"></use>
            </g>
            <g id="图形" transform="translate(8.333333, 16.640625)">
                <mask id="mask-4" fill="white">
                    <use xlink:href="#path-3"></use>
                </mask>
                <use id="路径" fill="#FFFFFF" xlink:href="#path-3"></use>
                <path d="M23.2447917,8.34515381 L26.2788817,12.7699639 C26.5912098,13.2254522 27.213648,13.3415065 27.6691363,13.0291783 L27.7416546,12.9744484 L27.7416546,12.9744484 L35.6666667,6.40765381 L23.2447917,8.34515381 Z" id="路径-12" fill="url(#linearGradient-5)" mask="url(#mask-4)"></path>
                <path d="M11.9947917,8.36102295 L8.96070162,12.785833 C8.64837352,13.2413213 8.02593533,13.3573756 7.57044702,13.0450475 L7.49792871,12.9903175 L7.49792871,12.9903175 L-0.427083333,6.42352295 L11.9947917,8.36102295 Z" id="路径-12备份" fill="url(#linearGradient-6)" mask="url(#mask-4)"></path>
            </g>
        </g>
    </g>
</svg>