<?xml version="1.0" encoding="UTF-8"?>
<svg width="100px" height="100px" viewBox="0 0 100 100" version="1.1" xmlns="http://www.w3.org/2000/svg" xmlns:xlink="http://www.w3.org/1999/xlink">
    <title>WPS-mac</title>
    <defs>
        <linearGradient x1="50%" y1="99.9056275%" x2="50%" y2="3.36254504%" id="linearGradient-1">
            <stop stop-color="#FF5100" offset="0.09765625%"></stop>
            <stop stop-color="#FF1522" offset="100%"></stop>
        </linearGradient>
        <linearGradient x1="54.4194543%" y1="83.5378358%" x2="22.4693143%" y2="11.2514652%" id="linearGradient-2">
            <stop stop-color="#FD7821" stop-opacity="0" offset="0%"></stop>
            <stop stop-color="#881000" stop-opacity="0.66" offset="100%"></stop>
        </linearGradient>
        <linearGradient x1="39.3116562%" y1="66.7112193%" x2="62.1259557%" y2="0%" id="linearGradient-3">
            <stop stop-color="#FD7821" stop-opacity="0" offset="0%"></stop>
            <stop stop-color="#FF5100" offset="66.6477654%"></stop>
            <stop stop-color="#FF9B27" offset="100%"></stop>
        </linearGradient>
    </defs>
    <g id="WPS-mac" stroke="none" stroke-width="1" fill="none" fill-rule="evenodd">
        <g id="编组-5" transform="translate(18.000000, 28.000000)">
            <g id="编组-6" transform="translate(0.550000, 0.000000)">
                <path d="M32.386454,31.7388794 L37.2371213,21.4019736 L41.441822,30.3622844 L50.9648303,10.0684914 C51.1812211,9.60735098 50.9814504,9.05874014 50.5186301,8.84313482 C50.3959728,8.78599479 50.2622217,8.75637931 50.1268199,8.75637931 L40.6180646,8.75637931 L35.9593237,18.6792005 L35.9605082,18.6817353 L31.1100722,29.018641 L31.1077313,29.0133411 L25.2559222,41.4778219 C24.2325598,43.9529541 21.3964696,45.129846 18.9213374,44.1064836 C17.7316796,43.6146104 16.7864051,42.6699121 16.2938065,41.4805545 L16.2926748,41.4778219 L15.9273957,40.7003423 L15.9275988,40.699651 L0.523737279,7.87264509 C-0.774592066,5.10579532 0.424050086,1.81413686 3.20097946,0.520520142 C3.9369159,0.177688346 4.73941255,-2.84217094e-14 5.55181269,-2.84217094e-14 L22.4849648,-2.84217094e-14 C25.3584562,-2.84217094e-14 27.9722017,1.65729403 29.1891547,4.25091654 L29.8304526,5.61767819 L24.9753911,15.9449059 L22.1007673,9.81903983 C21.796514,9.17067147 21.1430974,8.75637931 20.424752,8.75637931 L12.0933479,8.75637931 C11.5824393,8.75637931 11.168266,9.16904926 11.168266,9.67810345 C11.168266,9.81301372 11.1979893,9.94627933 11.2553375,10.0684914 L20.7782661,30.3622844 L26.2593767,18.6812744 L26.2510792,18.6635312 L31.1061406,8.33630353 L31.1098127,8.34413819 L33.0309638,4.25075659 C34.2479519,1.65722096 36.8616512,-2.84217094e-14 39.7350786,-2.84217094e-14 L56.6683552,-2.84217094e-14 C59.7338071,-2.84217094e-14 62.218847,2.47601972 62.218847,5.53034483 C62.218847,6.33979615 62.0405113,7.13937993 61.6964306,7.87264509 L45.9274931,41.4778219 C44.9032041,43.955195 42.0645463,45.1331524 39.5871733,44.1088634 C38.3974327,43.616956 37.4518461,42.6725502 36.9584526,41.4834251 L36.9561277,41.4778219 L32.386454,31.7388794 Z" id="形状结合" fill="url(#linearGradient-1)"></path>
                <path d="M56.6683552,-8.52651283e-14 C59.7338071,-8.52651283e-14 62.218847,2.47601972 62.218847,5.53034483 C62.218847,6.33979615 62.0405113,7.13937993 61.6964306,7.87264509 L53.4925628,25.354 L46.0335628,20.577 L50.9648303,10.0684914 C51.1812211,9.60735098 50.9814504,9.05874014 50.5186301,8.84313482 C50.3959728,8.78599479 50.2622217,8.75637931 50.1268199,8.75637931 L45.2095628,8.75896908 L45.2100646,8.756 L40.6180646,8.75637931 L43.1400985,3.37918548 C43.9823517,1.393463 45.9553735,4.12114787e-13 48.2550418,4.12114787e-13 L48.2920646,0.001 L48.2927741,-1.53210777e-14 L56.6683552,-8.52651283e-14 Z" id="形状结合" fill="url(#linearGradient-2)" style="mix-blend-mode: multiply;"></path>
                <path d="M35.9593237,18.6792005 L35.9605082,18.6817353 L31.1100722,29.018641 L31.1077313,29.0133411 L25.2559222,41.4778219 C24.2325598,43.9529541 21.3964696,45.129846 18.9213374,44.1064836 C17.7316796,43.6146104 16.7864051,42.6699121 16.2938065,41.4805545 L16.2926748,41.4778219 L15.9273957,40.7003423 L15.9275988,40.699651 L14.4759,37.6059 L19.5709,27.7889 L20.7782661,30.3622844 L26.2593767,18.6812744 L26.2510792,18.6635312 L31.1061406,8.33630353 L31.1098127,8.34413819 L33.0309638,4.25075659 C34.2479519,1.65722096 36.8616512,-2.30926389e-13 39.7350786,-2.30926389e-13 L48.2927741,2.65343303e-13 L48.2920646,0.001 L48.2550418,6.92779167e-13 C45.9553735,6.92779167e-13 43.9823517,1.393463 43.1400985,3.37918548 L43.1400985,3.37918548 L40.6180646,8.75637931 L35.9593237,18.6792005 Z" id="形状结合" fill="url(#linearGradient-3)"></path>
            </g>
        </g>
        <g id="编组" transform="translate(39.000000, 78.000000)">
            <rect id="矩形" fill="#C5C1C1" x="0" y="0" width="22" height="10" rx="1"></rect>
            <text id="Mac" font-family="PingFangSC-Medium, PingFang SC" font-size="8" font-weight="400" letter-spacing="0.14666656" fill="#FFFFFF">
                <tspan x="2.68000016" y="8">Mac</tspan>
            </text>
        </g>
    </g>
</svg>